<?xml version="1.0" encoding="UTF-8" standalone="no"?>
<!-- Created with Inkscape (http://www.inkscape.org/) -->

<svg
   xmlns:dc="http://purl.org/dc/elements/1.1/"
   xmlns:cc="http://creativecommons.org/ns#"
   xmlns:rdf="http://www.w3.org/1999/02/22-rdf-syntax-ns#"
   xmlns:svg="http://www.w3.org/2000/svg"
   xmlns="http://www.w3.org/2000/svg"
   xmlns:xlink="http://www.w3.org/1999/xlink"
   xmlns:sodipodi="http://sodipodi.sourceforge.net/DTD/sodipodi-0.dtd"
   xmlns:inkscape="http://www.inkscape.org/namespaces/inkscape"
   id="svg3039"
   version="1.1"
   inkscape:version="0.48.4 r9939"
   width="295"
   height="295"
   sodipodi:docname="icon__ufo.svg">
  <metadata
     id="metadata3045">
    <rdf:RDF>
      <cc:Work
         rdf:about="">
        <dc:format>image/svg+xml</dc:format>
        <dc:type
           rdf:resource="http://purl.org/dc/dcmitype/StillImage" />
        <dc:title></dc:title>
      </cc:Work>
    </rdf:RDF>
  </metadata>
  <defs
     id="defs3043">
    <linearGradient
       id="linearGradient4011">
      <stop
         style="stop-color:#00ff0c;stop-opacity:1;"
         offset="0"
         id="stop4013" />
      <stop
         style="stop-color:#ff5000;stop-opacity:0;"
         offset="1"
         id="stop4015" />
    </linearGradient>
    <linearGradient
       inkscape:collect="always"
       id="linearGradient3970">
      <stop
         style="stop-color:#fafa0e;stop-opacity:1;"
         offset="0"
         id="stop3972" />
      <stop
         style="stop-color:#fafa0e;stop-opacity:0;"
         offset="1"
         id="stop3974" />
    </linearGradient>
    <linearGradient
       id="linearGradient3962">
      <stop
         style="stop-color:#f6ff00;stop-opacity:1;"
         offset="0"
         id="stop3964" />
      <stop
         style="stop-color:#ffffff;stop-opacity:0;"
         offset="1"
         id="stop3966" />
    </linearGradient>
    <linearGradient
       id="linearGradient3952">
      <stop
         style="stop-color:#f9ff00;stop-opacity:0.24705882;"
         offset="0"
         id="stop3960" />
      <stop
         style="stop-color:#ff00ff;stop-opacity:0;"
         offset="1"
         id="stop3958" />
    </linearGradient>
    <linearGradient
       id="linearGradient3944">
      <stop
         id="stop3946"
         offset="0"
         style="stop-color:#f6ff00;stop-opacity:1;" />
      <stop
         style="stop-color:#fa7f7f;stop-opacity:0.49803922;"
         offset="0.5"
         id="stop3948" />
      <stop
         id="stop3950"
         offset="1"
         style="stop-color:#ff00ff;stop-opacity:0;" />
    </linearGradient>
    <linearGradient
       id="linearGradient3936">
      <stop
         style="stop-color:#f6ff00;stop-opacity:1;"
         offset="0"
         id="stop3938" />
      <stop
         id="stop3940"
         offset="0.5"
         style="stop-color:#fa7f7f;stop-opacity:0.49803922;" />
      <stop
         style="stop-color:#ff00ff;stop-opacity:0;"
         offset="1"
         id="stop3942" />
    </linearGradient>
    <linearGradient
       id="linearGradient3928">
      <stop
         id="stop3930"
         offset="0"
         style="stop-color:#f6ff00;stop-opacity:1;" />
      <stop
         style="stop-color:#fa7f7f;stop-opacity:0.49803922;"
         offset="0.5"
         id="stop3932" />
      <stop
         id="stop3934"
         offset="1"
         style="stop-color:#ff00ff;stop-opacity:0;" />
    </linearGradient>
    <linearGradient
       id="linearGradient3920">
      <stop
         style="stop-color:#f6ff00;stop-opacity:1;"
         offset="0"
         id="stop3922" />
      <stop
         id="stop3924"
         offset="0.5"
         style="stop-color:#fa7f7f;stop-opacity:0.49803922;" />
      <stop
         style="stop-color:#ff00ff;stop-opacity:0;"
         offset="1"
         id="stop3926" />
    </linearGradient>
    <linearGradient
       id="linearGradient3912">
      <stop
         id="stop3914"
         offset="0"
         style="stop-color:#f6ff00;stop-opacity:1;" />
      <stop
         style="stop-color:#fa7f7f;stop-opacity:0.49803922;"
         offset="0.5"
         id="stop3916" />
      <stop
         id="stop3918"
         offset="1"
         style="stop-color:#ff00ff;stop-opacity:0;" />
    </linearGradient>
    <linearGradient
       id="linearGradient3904">
      <stop
         style="stop-color:#f6ff00;stop-opacity:1;"
         offset="0"
         id="stop3906" />
      <stop
         id="stop3908"
         offset="0.5"
         style="stop-color:#fa7f7f;stop-opacity:0.49803922;" />
      <stop
         style="stop-color:#ff00ff;stop-opacity:0;"
         offset="1"
         id="stop3910" />
    </linearGradient>
    <linearGradient
       id="linearGradient3896">
      <stop
         id="stop3898"
         offset="0"
         style="stop-color:#f6ff00;stop-opacity:1;" />
      <stop
         style="stop-color:#fa7f7f;stop-opacity:0.49803922;"
         offset="0.5"
         id="stop3900" />
      <stop
         id="stop3902"
         offset="1"
         style="stop-color:#ff00ff;stop-opacity:0;" />
    </linearGradient>
    <linearGradient
       id="linearGradient3888">
      <stop
         style="stop-color:#f6ff00;stop-opacity:1;"
         offset="0"
         id="stop3890" />
      <stop
         id="stop3892"
         offset="0.5"
         style="stop-color:#fa7f7f;stop-opacity:0.49803922;" />
      <stop
         style="stop-color:#ff00ff;stop-opacity:0;"
         offset="1"
         id="stop3894" />
    </linearGradient>
    <linearGradient
       id="linearGradient3880">
      <stop
         id="stop3882"
         offset="0"
         style="stop-color:#f6ff00;stop-opacity:1;" />
      <stop
         style="stop-color:#fa7f7f;stop-opacity:0.49803922;"
         offset="0.5"
         id="stop3884" />
      <stop
         id="stop3886"
         offset="1"
         style="stop-color:#ff00ff;stop-opacity:0;" />
    </linearGradient>
    <linearGradient
       id="linearGradient3877">
      <stop
         style="stop-color:#f6ff00;stop-opacity:1;"
         offset="0"
         id="stop3879" />
      <stop
         id="stop3878"
         offset="0.5"
         style="stop-color:#fa7f7f;stop-opacity:0.49803922;" />
      <stop
         style="stop-color:#ff00ff;stop-opacity:0;"
         offset="1"
         id="stop3881" />
    </linearGradient>
    <linearGradient
       inkscape:collect="always"
       xlink:href="#linearGradient3962"
       id="linearGradient3968"
       x1="101.44825"
       y1="197.25668"
       x2="190.58685"
       y2="197.25668"
       gradientUnits="userSpaceOnUse" />
    <radialGradient
       inkscape:collect="always"
       xlink:href="#linearGradient3970"
       id="radialGradient3978"
       cx="146.01755"
       cy="197.25668"
       fx="146.01755"
       fy="197.25668"
       r="44.569302"
       gradientTransform="matrix(1,0,0,1.0249786,0,-4.9272037)"
       gradientUnits="userSpaceOnUse" />
    <radialGradient
       inkscape:collect="always"
       xlink:href="#linearGradient4011"
       id="radialGradient4017"
       cx="53.70924"
       cy="59.320652"
       fx="53.70924"
       fy="59.320652"
       r="38.638588"
       gradientTransform="matrix(1,0,0,1.0207468,0,-1.2307153)"
       gradientUnits="userSpaceOnUse" />
  </defs>
  <sodipodi:namedview
     pagecolor="#ffffff"
     bordercolor="#666666"
     borderopacity="1"
     objecttolerance="10"
     gridtolerance="10"
     guidetolerance="10"
     inkscape:pageopacity="0"
     inkscape:pageshadow="2"
     inkscape:window-width="1853"
     inkscape:window-height="1056"
     id="namedview3041"
     showgrid="false"
     inkscape:zoom="3.1186441"
     inkscape:cx="91.38587"
     inkscape:cy="147.5"
     inkscape:window-x="67"
     inkscape:window-y="24"
     inkscape:window-maximized="1"
     inkscape:current-layer="svg3039" />
  <path
     sodipodi:type="arc"
     style="fill:url(#radialGradient4017);fill-opacity:1;stroke:none;stroke-width:14.26889800999999913;stroke-linecap:round;stroke-linejoin:round;stroke-miterlimit:4;stroke-opacity:0.91402713999999996;stroke-dasharray:none"
     id="path4009"
     sodipodi:cx="53.70924"
     sodipodi:cy="59.320652"
     sodipodi:rx="38.638588"
     sodipodi:ry="39.440216"
     d="m 92.347828,59.320652 a 38.638588,39.440216 0 1 1 -77.277176,0 38.638588,39.440216 0 1 1 77.277176,0 z"
     transform="matrix(2.1162474,0,0,2.0854294,32.395026,7.7583579)" />
  <path
     style="fill:url(#linearGradient3968);stroke:url(#radialGradient3978);stroke-width:5.70000000000000018;stroke-linecap:butt;stroke-linejoin:bevel;stroke-opacity:1;fill-opacity:1;stroke-miterlimit:4;stroke-dasharray:none"
     d="m 124.02422,155.1043 -19.72597,73.46225 c 0,0 36.73112,25.62109 83.4386,0.45347 L 172.09211,154.4241 c 0,0 -27.43498,6.34858 -48.06789,0.6802 z"
     id="path3875"
     inkscape:connector-curvature="0" />
  <path
     style="opacity:0;fill:#000000;fill-opacity:1;stroke:#000000;stroke-width:14.26799965000000014;stroke-linecap:round;stroke-linejoin:round;stroke-miterlimit:4;stroke-opacity:1;stroke-dasharray:none"
     id="path3053"
     d="m 22.485001,35.747541 c 1.185961,1.869323 2.589504,3.592875 3.979182,5.31296 1.545617,1.967608 3.35276,3.694023 5.19126,5.38113 1.769585,1.598008 3.812886,2.817181 5.929294,3.889747 1.387727,0.635814 2.743852,1.327836 3.977604,2.230095 0.866738,0.661259 1.783295,1.244504 2.718589,1.80153 0.660801,0.311053 1.293147,0.69752 2.003453,0.885443 0.749937,0.343431 1.482579,0.703492 2.269082,0.964834 1.518284,0.532466 3.092172,0.858965 4.679753,1.099017 1.760153,0.269699 3.526508,0.496776 5.291479,0.734189 0.902531,0.140805 1.828822,0.260095 2.709449,0.510898 0.63883,0.208372 1.253716,0.449872 1.920018,0.562789 0.66309,0.07789 1.334712,0.123371 1.997498,0.03518 1.234001,-0.362538 2.428495,-0.841225 3.654199,-1.233381 2.144351,-0.714667 4.350305,-1.177475 6.560628,-1.626941 1.737595,-0.339471 3.439771,-0.832014 5.02703,-1.620783 0.180236,-0.106865 0.723052,-0.42382 0.540708,-0.320594 -1.189827,0.673565 -2.36797,1.367819 -3.563247,2.031664 -0.162637,0.09033 0.308182,-0.208507 0.463893,-0.310312 0.170264,-0.111321 0.337925,-0.227118 0.51398,-0.329033 4.59198,-2.658207 3.049024,-1.935202 5.316507,-2.959418 1.757023,-0.686164 3.499711,-1.400316 5.189825,-2.239468 0.90578,-0.449993 1.824412,-0.874533 2.71289,-1.358731 0.245792,-0.133951 0.97258,-0.55479 0.729593,-0.415814 -3.599512,2.058727 -4.481876,2.651768 -2.856361,1.587739 0.80187,-0.508587 1.562607,-1.071314 2.279312,-1.693358 0.659488,-0.591915 1.28406,-1.22115 1.910592,-1.847408 0.689742,-0.669776 1.290485,-1.422438 1.924462,-2.143537 0.581866,-0.678927 1.248355,-1.280917 1.799123,-1.985907 0.190075,-0.26166 0.377559,-0.525124 0.563088,-0.790016 0,0 4.384656,-1.876451 4.384656,-1.876451 l 0,0 c -0.21879,0.244959 -0.37583,0.520308 -0.58664,0.772601 -0.4933,0.767874 -1.18409,1.361507 -1.789134,2.039218 -0.644344,0.715975 -1.242747,1.473113 -1.909756,2.167006 -0.627241,0.629617 -1.252051,1.262044 -1.898639,1.871935 -0.710307,0.652239 -1.45468,1.264706 -2.283223,1.763762 -2.707247,1.883234 -5.666404,3.377368 -8.624864,4.818711 -1.713514,0.821376 -3.478255,1.517629 -5.225925,2.260969 -1.851147,0.915096 -0.975323,0.501538 2.771243,-1.678471 0.334581,-0.194682 -0.644993,0.428762 -0.977357,0.627205 -4.085846,2.439514 -3.042998,1.883964 -5.072536,2.942166 -1.615583,0.711411 -3.318735,1.171935 -5.052297,1.498545 -2.212813,0.44208 -4.408527,0.954557 -6.546718,1.686504 -1.24707,0.422553 -2.471089,0.977769 -3.776325,1.187066 -0.698014,0.02701 -1.399429,0.0014 -2.086259,-0.13745 -0.657484,-0.153717 -1.277322,-0.413483 -1.929478,-0.584922 -0.874336,-0.194356 -1.753336,-0.378606 -2.64161,-0.496247 -1.753489,-0.265567 -3.512546,-0.487206 -5.264751,-0.760766 -1.617727,-0.262364 -3.223848,-0.599035 -4.776301,-1.133898 -0.778893,-0.279561 -1.516098,-0.64601 -2.288975,-0.935853 -0.71173,-0.258829 -1.374129,-0.638617 -2.040192,-0.994899 -0.941458,-0.569717 -1.857068,-1.178512 -2.737019,-1.840179 -1.208112,-0.879543 -2.532347,-1.562851 -3.877681,-2.208516 -2.130297,-1.119252 -4.18413,-2.38385 -5.974181,-4.00786 -1.85474,-1.703222 -3.667994,-3.455957 -5.229092,-5.439685 -1.400466,-1.745779 -2.806332,-3.490454 -4.107391,-5.31228 0,0 4.107562,-2.380724 4.107562,-2.380724 z"
     inkscape:connector-curvature="0" />
  <path
     style="opacity:0;fill:#000000;fill-opacity:1;stroke:#000000;stroke-width:14.26799965;stroke-linecap:round;stroke-linejoin:round;stroke-miterlimit:4;stroke-opacity:1;stroke-dasharray:none"
     id="path3055"
     d="m 24.13599,41.712786 c 1.799629,1.976341 3.740652,3.809959 5.742734,5.577942 2.1675,1.973979 4.495411,3.758073 6.950896,5.356706 1.810139,1.133742 3.783017,1.95497 5.759521,2.744838 1.539006,0.669506 3.112528,1.175383 4.771676,1.423529 1.843757,0.127045 3.678561,0.335303 5.509242,0.589379 2.28813,0.28609 4.553338,0.704666 6.847243,0.947186 2.209048,0.172233 4.409887,-0.06916 6.600306,-0.328367 1.801019,-0.184055 3.589439,-0.50943 5.337832,-0.978339 1.415386,-0.440136 2.768961,-1.073341 4.090894,-1.739679 2.309875,-1.356441 -1.469279,0.868932 -2.547569,1.412433 -0.298028,0.150219 0.543303,-0.388125 0.806317,-0.593577 1.006976,-0.786595 1.958325,-1.647602 2.915912,-2.492308 2.44769,-2.173892 4.970072,-4.260149 7.415309,-6.436904 1.695833,-1.561356 3.425441,-3.085385 5.125954,-4.64157 0,0 4.35441,-1.779864 4.35441,-1.779864 l 0,0 c -1.736278,1.573621 -3.517194,3.097355 -5.235087,4.69132 -2.434179,2.174878 -4.948541,4.255306 -7.386519,6.425592 -1.245314,1.119142 -0.780107,0.711327 -1.989974,1.760428 -0.274279,0.237832 -1.296232,1.143551 -1.644274,1.360002 -1.567422,0.974796 -3.168144,1.895059 -4.758983,2.83115 -0.238203,0.140166 -0.485149,0.264914 -0.727723,0.397371 -1.341272,0.646838 -2.700967,1.28342 -4.147271,1.659616 -1.759529,0.426489 -3.54662,0.739891 -5.350123,0.908518 -2.208567,0.248728 -4.43209,0.44675 -6.654168,0.237687 -2.293831,-0.266342 -4.564591,-0.682457 -6.85795,-0.95244 -1.847493,-0.237816 -3.700834,-0.395101 -5.553721,-0.575149 -1.669581,-0.298408 -3.251703,-0.853891 -4.808778,-1.524073 -1.987557,-0.81351 -3.963846,-1.673481 -5.770615,-2.848622 -2.445447,-1.64004 -4.770368,-3.448317 -6.944913,-5.435973 -2.022487,-1.780086 -3.965121,-3.641233 -5.900174,-5.515237 0,0 4.049596,-2.481595 4.049596,-2.481595 z"
     inkscape:connector-curvature="0" />
  <path
     style="opacity:0;fill:#000000;fill-opacity:1;stroke:#000000;stroke-width:4.57506514;stroke-linecap:round;stroke-linejoin:round;stroke-miterlimit:4;stroke-opacity:1;stroke-dasharray:none"
     d="m 139.2913,151.50815 c 0,-0.40685 -0.766,-0.48098 -4.9701,-0.48098 -4.20411,0 -4.97011,-0.0741 -4.97011,-0.48097 0,-0.39839 -0.60568,-0.48098 -3.52718,-0.48098 -2.92149,0 -3.52717,-0.0826 -3.52717,-0.48098 0,-0.38745 -0.49879,-0.48098 -2.56522,-0.48098 -2.06642,0 -2.56522,-0.0935 -2.56522,-0.48098 0,-0.37409 -0.42753,-0.48098 -1.92391,-0.48098 -1.49638,0 -1.92391,-0.10688 -1.92391,-0.48097 0,-0.35628 -0.3741,-0.48098 -1.44294,-0.48098 -1.06884,0 -1.44293,-0.1247 -1.44293,-0.48098 0,-0.37821 -0.44535,-0.48098 -2.08424,-0.48098 -1.87047,0 -2.08424,-0.0658 -2.08424,-0.6413 0,-0.5463 -0.21377,-0.64131 -1.44293,-0.64131 -1.06884,0 -1.44294,-0.1247 -1.44294,-0.48098 0,-0.33592 -0.33847,-0.48097 -1.12228,-0.48097 -0.78382,0 -1.12228,-0.14506 -1.12228,-0.48098 0,-0.35628 -0.3741,-0.48098 -1.442939,-0.48098 -1.068841,0 -1.442935,-0.1247 -1.442935,-0.48098 0,-0.32065 -0.320652,-0.48098 -0.961956,-0.48098 -0.641305,0 -0.961957,-0.16032 -0.961957,-0.48098 0,-0.3634 -0.391908,-0.48097 -1.603261,-0.48097 -1.211353,0 -1.603261,-0.11758 -1.603261,-0.48098 0,-0.32065 -0.320652,-0.48098 -0.961956,-0.48098 -0.641305,0 -0.961957,-0.16033 -0.961957,-0.48098 0,-0.32065 -0.320652,-0.48098 -0.961956,-0.48098 -0.641305,0 -0.961957,-0.16032 -0.961957,-0.48097 0,-0.26454 -0.21644,-0.48098 -0.480978,-0.48098 -0.26721,0 -0.480978,-0.28503 -0.480978,-0.64131 0,-0.49879 -0.213769,-0.6413 -0.961957,-0.6413 -0.641304,0 -0.961956,-0.16033 -0.961956,-0.48098 0,-0.33592 -0.338467,-0.48098 -1.122283,-0.48098 -0.783816,0 -1.122283,-0.14506 -1.122283,-0.48098 0,-0.26453 -0.21644,-0.48097 -0.480978,-0.48097 -0.264538,0 -0.480978,-0.21645 -0.480978,-0.48098 0,-0.32066 -0.320652,-0.48098 -0.961957,-0.48098 -0.641304,0 -0.961956,-0.16033 -0.961956,-0.48098 0,-0.26454 -0.21644,-0.48098 -0.480978,-0.48098 -0.264538,0 -0.480979,-0.21644 -0.480979,-0.48098 0,-0.32065 -0.320652,-0.48097 -0.961956,-0.48097 -0.641305,0 -0.961957,-0.16033 -0.961957,-0.48098 0,-0.26454 -0.21644,-0.48098 -0.480978,-0.48098 -0.264538,0 -0.480978,-0.21644 -0.480978,-0.48098 0,-0.26721 -0.285024,-0.48098 -0.641305,-0.48098 -0.35628,0 -0.641304,-0.21377 -0.641304,-0.48098 0,-0.26453 -0.21644,-0.48097 -0.480978,-0.48097 -0.26721,0 -0.480978,-0.28503 -0.480978,-0.64131 0,-0.35628 -0.213769,-0.6413 -0.480979,-0.6413 -0.264538,0 -0.480978,-0.21644 -0.480978,-0.48098 0,-0.26454 -0.21644,-0.48098 -0.480978,-0.48098 -0.264538,0 -0.480978,-0.14429 -0.480978,-0.32065 0,-0.17636 0.21644,-0.32065 0.480978,-0.32065 0.264538,0 0.480978,-0.21644 0.480978,-0.48098 0,-0.26454 0.21644,-0.48098 0.480978,-0.48098 0.26721,0 0.480979,-0.28502 0.480979,-0.6413 0,-0.51916 0.213768,-0.64131 1.122282,-0.64131 0.783816,0 1.122283,-0.14506 1.122283,-0.48098 0,-0.26454 0.21644,-0.48098 0.480978,-0.48098 0.264538,0 0.480978,-0.21644 0.480978,-0.48097 0,-0.26454 0.216441,-0.48098 0.480979,-0.48098 0.264538,0 0.480978,-0.21644 0.480978,-0.48098 0,-0.32065 0.320652,-0.48098 0.961956,-0.48098 0.641305,0 0.961957,-0.16032 0.961957,-0.48098 0,-0.26453 0.21644,-0.48097 0.480978,-0.48097 0.264538,0 0.480978,-0.21645 0.480978,-0.48098 0,-0.32066 0.320653,-0.48098 0.961957,-0.48098 0.641304,0 0.961956,-0.16033 0.961956,-0.48098 0,-0.26721 0.285025,-0.48098 0.641305,-0.48098 0.35628,0 0.641304,-0.21377 0.641304,-0.48098 0,-0.32065 0.320652,-0.48097 0.961957,-0.48097 0.748188,0 0.961956,-0.14252 0.961956,-0.64131 0,-0.49879 0.213768,-0.6413 0.961957,-0.6413 0.641304,0 0.961956,-0.16033 0.961956,-0.48098 0,-0.32065 0.320652,-0.48098 0.961957,-0.48098 0.641304,0 0.961956,-0.16033 0.961956,-0.48098 0,-0.32065 0.320652,-0.48098 0.961957,-0.48098 0.641304,0 0.961956,-0.16032 0.961956,-0.48097 0,-0.33593 0.338467,-0.48098 1.122283,-0.48098 0.783816,0 1.122283,-0.14506 1.122283,-0.48098 0,-0.32065 0.320652,-0.48098 0.961956,-0.48098 0.641304,0 0.961957,-0.16033 0.961957,-0.48098 0,-0.35628 0.374094,-0.48098 1.442934,-0.48098 1.068841,0 1.442936,-0.12469 1.442936,-0.48097 0,-0.33593 0.33847,-0.48098 1.12228,-0.48098 0.78382,0 1.12228,-0.14506 1.12228,-0.48098 0,-0.35628 0.3741,-0.48098 1.44294,-0.48098 1.06884,0 1.44293,-0.1247 1.44293,-0.48098 0,-0.35628 0.3741,-0.48098 1.44294,-0.48098 1.22916,0 1.44293,-0.095 1.44293,-0.6413 0,-0.5463 0.21377,-0.6413 1.44294,-0.6413 1.22916,0 1.44293,0.095 1.44293,0.6413 0,0.35628 0.21377,0.6413 0.48098,0.6413 0.26454,0 0.48098,0.21644 0.48098,0.48098 0,0.33592 0.33847,0.48098 1.12228,0.48098 0.78382,0 1.12228,0.14506 1.12228,0.48098 0,0.26454 0.21644,0.48098 0.48098,0.48098 0.26454,0 0.48098,0.21644 0.48098,0.48098 0,0.32065 0.32065,0.48097 0.96196,0.48097 0.6413,0 0.96195,0.16033 0.96195,0.48098 0,0.32065 0.32066,0.48098 0.96196,0.48098 0.64131,0 0.96196,0.16033 0.96196,0.48098 0,0.32065 0.32065,0.48098 0.96195,0.48098 0.64131,0 0.96196,0.16032 0.96196,0.48098 0,0.3634 0.39191,0.48097 1.60326,0.48097 1.21135,0 1.60326,0.11758 1.60326,0.48098 0,0.35628 0.3741,0.48098 1.44294,0.48098 1.06884,0 1.44293,0.1247 1.44293,0.48098 0,0.38745 0.4988,0.48098 2.56522,0.48098 2.35145,0 2.56522,0.0534 2.56522,0.6413 0,0.5938 0.21377,0.64131 2.88587,0.64131 2.35144,0 2.88587,0.0891 2.88587,0.48097 0,0.41736 1.33605,0.48098 10.10054,0.48098 8.76449,0 10.10054,-0.0636 10.10054,-0.48098 0,-0.39378 0.55224,-0.48097 3.0462,-0.48097 2.83242,0 3.04619,-0.045 3.04619,-0.64131 0,-0.57005 0.21377,-0.6413 1.92392,-0.6413 1.49637,0 1.92391,-0.10689 1.92391,-0.48098 0,-0.36341 0.39191,-0.48098 1.60326,-0.48098 1.21135,0 1.60326,-0.11757 1.60326,-0.48098 0,-0.35628 0.3741,-0.48098 1.44294,-0.48098 1.06884,0 1.44293,-0.12469 1.44293,-0.48097 0,-0.32066 0.32065,-0.48098 0.96196,-0.48098 0.6413,0 0.96195,-0.16033 0.96195,-0.48098 0,-0.33592 0.33847,-0.48098 1.12229,-0.48098 0.78381,0 1.12228,-0.14506 1.12228,-0.48098 0,-0.32065 0.32065,-0.48098 0.96196,-0.48098 0.6413,0 0.96195,-0.16032 0.96195,-0.48097 0,-0.32066 0.32065,-0.48098 0.96196,-0.48098 0.6413,0 0.96196,-0.16033 0.96196,-0.48098 0,-0.26454 0.21644,-0.48098 0.48097,-0.48098 0.26454,0 0.48098,-0.21644 0.48098,-0.48098 0,-0.26454 0.21644,-0.48098 0.48098,-0.48098 0.26721,0 0.48098,-0.28502 0.48098,-0.6413 0,-0.5463 0.21377,-0.6413 1.44293,-0.6413 1.22917,0 1.44294,0.095 1.44294,0.6413 0,0.5558 0.21377,0.6413 1.60326,0.6413 1.21135,0 1.60326,0.11758 1.60326,0.48098 0,0.35628 0.3741,0.48098 1.44293,0.48098 1.06884,0 1.44294,0.1247 1.44294,0.48098 0,0.35628 0.37409,0.48098 1.44293,0.48098 1.06884,0 1.44294,0.1247 1.44294,0.48098 0,0.33592 0.33847,0.48097 1.12228,0.48097 0.78382,0 1.12228,0.14506 1.12228,0.48098 0,0.32065 0.32066,0.48098 0.96196,0.48098 0.64131,0 0.96196,0.16033 0.96196,0.48098 0,0.35628 0.37409,0.48098 1.44293,0.48098 1.06884,0 1.44294,0.1247 1.44294,0.48098 0,0.32065 0.32065,0.48097 0.96195,0.48097 0.64131,0 0.96196,0.16033 0.96196,0.48098 0,0.33592 0.33847,0.48098 1.12228,0.48098 0.78382,0 1.12229,0.14506 1.12229,0.48098 0,0.26454 0.21644,0.48098 0.48097,0.48098 0.26721,0 0.48098,0.28502 0.48098,0.6413 0,0.49879 0.21377,0.64131 0.96196,0.64131 0.6413,0 0.96195,0.16032 0.96195,0.48097 0,0.32066 0.32066,0.48098 0.96196,0.48098 0.64131,0 0.96196,0.16033 0.96196,0.48098 0,0.26454 0.21644,0.48098 0.48098,0.48098 0.26453,0 0.48097,0.21644 0.48097,0.48098 0,0.33592 0.33847,0.48098 1.12229,0.48098 0.78381,0 1.12228,0.14505 1.12228,0.48097 0,0.26454 0.21644,0.48098 0.48098,0.48098 0.26454,0 0.48098,0.21644 0.48098,0.48098 0,0.26454 0.21644,0.48098 0.48097,0.48098 0.26454,0 0.48098,0.21644 0.48098,0.48098 0,0.32065 0.32065,0.48097 0.96196,0.48097 0.6413,0 0.96196,0.16033 0.96196,0.48098 0,0.26454 0.21644,0.48098 0.48097,0.48098 0.26721,0 0.48098,0.28503 0.48098,0.64131 0,0.35628 0.21377,0.6413 0.48098,0.6413 0.26454,0 0.48098,0.21644 0.48098,0.48098 0,0.26454 0.21644,0.48098 0.48098,0.48098 0.29927,0 0.48098,0.30283 0.48098,0.80163 0,0.49879 -0.18171,0.80163 -0.48098,0.80163 -0.26721,0 -0.48098,0.28502 -0.48098,0.6413 0,0.49879 -0.21377,0.64131 -0.96196,0.64131 -0.6413,0 -0.96195,0.16032 -0.96195,0.48097 0,0.26454 -0.21644,0.48098 -0.48098,0.48098 -0.26454,0 -0.48098,0.21644 -0.48098,0.48098 0,0.26454 -0.21644,0.48098 -0.48098,0.48098 -0.26454,0 -0.48098,0.21644 -0.48098,0.48098 0,0.26454 -0.21644,0.48098 -0.48098,0.48098 -0.26453,0 -0.48097,0.21644 -0.48097,0.48097 0,0.33593 -0.33847,0.48098 -1.12229,0.48098 -0.78381,0 -1.12228,0.14506 -1.12228,0.48098 0,0.26454 -0.21644,0.48098 -0.48098,0.48098 -0.26454,0 -0.48098,0.21644 -0.48098,0.48098 0,0.32065 -0.32065,0.48098 -0.96195,0.48098 -0.64131,0 -0.96196,0.16032 -0.96196,0.48097 0,0.32066 -0.32065,0.48098 -0.96196,0.48098 -0.6413,0 -0.96195,0.16033 -0.96195,0.48098 0,0.26454 -0.21644,0.48098 -0.48098,0.48098 -0.26721,0 -0.48098,0.28502 -0.48098,0.6413 0,0.4988 -0.21377,0.64131 -0.96195,0.64131 -0.64131,0 -0.96196,0.16032 -0.96196,0.48098 0,0.33592 -0.33847,0.48097 -1.12228,0.48097 -0.78382,0 -1.12229,0.14506 -1.12229,0.48098 0,0.32065 -0.32065,0.48098 -0.96195,0.48098 -0.64131,0 -0.96196,0.16033 -0.96196,0.48098 0,0.32065 -0.32065,0.48098 -0.96196,0.48098 -0.6413,0 -0.96195,0.16032 -0.96195,0.48097 0,0.36341 -0.39191,0.48098 -1.60326,0.48098 -1.21136,0 -1.60326,0.11758 -1.60326,0.48098 0,0.32065 -0.32066,0.48098 -0.96196,0.48098 -0.64131,0 -0.96196,0.16033 -0.96196,0.48098 0,0.35628 -0.37409,0.48098 -1.44293,0.48098 -1.06884,0 -1.44294,0.12469 -1.44294,0.48097 0,0.36341 -0.3919,0.48098 -1.60326,0.48098 -1.38949,0 -1.60326,0.0855 -1.60326,0.64131 0,0.54629 -0.21377,0.6413 -1.44293,0.6413 -1.06884,0 -1.44294,0.1247 -1.44294,0.48098 0,0.37409 -0.42753,0.48098 -1.92391,0.48098 -1.49638,0 -1.92391,0.10688 -1.92391,0.48098 0,0.3782 -0.44535,0.48097 -2.08424,0.48097 -1.63889,0 -2.08424,0.10278 -2.08424,0.48098 0,0.38479 -0.48098,0.48098 -2.40489,0.48098 -1.92392,0 -2.4049,0.0962 -2.4049,0.48098 0,0.39838 -0.60567,0.48098 -3.52717,0.48098 -2.9215,0 -3.52717,0.0826 -3.52717,0.48098 0,0.40685 -0.76601,0.48097 -4.97011,0.48097 -4.20411,0 -4.97011,0.0741 -4.97011,0.48098 0,0.41544 -1.15791,0.48098 -8.49728,0.48098 -7.33938,0 -8.49729,-0.0655 -8.49729,-0.48098 z"
     id="path3061"
     inkscape:connector-curvature="0" />
  <path
     style="opacity:0;fill:#000000;fill-opacity:1;stroke:#000000;stroke-width:4.57506514;stroke-linecap:round;stroke-linejoin:round;stroke-miterlimit:4;stroke-opacity:1;stroke-dasharray:none"
     d="m 139.2913,151.50815 c 0,-0.40685 -0.766,-0.48098 -4.9701,-0.48098 -4.20411,0 -4.97011,-0.0741 -4.97011,-0.48097 0,-0.39839 -0.60568,-0.48098 -3.52718,-0.48098 -2.92149,0 -3.52717,-0.0826 -3.52717,-0.48098 0,-0.38745 -0.49879,-0.48098 -2.56522,-0.48098 -2.06642,0 -2.56522,-0.0935 -2.56522,-0.48098 0,-0.37409 -0.42753,-0.48098 -1.92391,-0.48098 -1.49638,0 -1.92391,-0.10688 -1.92391,-0.48097 0,-0.35628 -0.3741,-0.48098 -1.44294,-0.48098 -1.06884,0 -1.44293,-0.1247 -1.44293,-0.48098 0,-0.37821 -0.44535,-0.48098 -2.08424,-0.48098 -1.87047,0 -2.08424,-0.0658 -2.08424,-0.6413 0,-0.5463 -0.21377,-0.64131 -1.44293,-0.64131 -1.06884,0 -1.44294,-0.1247 -1.44294,-0.48098 0,-0.33592 -0.33847,-0.48097 -1.12228,-0.48097 -0.78382,0 -1.12228,-0.14506 -1.12228,-0.48098 0,-0.35628 -0.3741,-0.48098 -1.442939,-0.48098 -1.068841,0 -1.442935,-0.1247 -1.442935,-0.48098 0,-0.32065 -0.320652,-0.48098 -0.961956,-0.48098 -0.641305,0 -0.961957,-0.16032 -0.961957,-0.48098 0,-0.3634 -0.391908,-0.48097 -1.603261,-0.48097 -1.211353,0 -1.603261,-0.11758 -1.603261,-0.48098 0,-0.32065 -0.320652,-0.48098 -0.961956,-0.48098 -0.641305,0 -0.961957,-0.16033 -0.961957,-0.48098 0,-0.32065 -0.320652,-0.48098 -0.961956,-0.48098 -0.641305,0 -0.961957,-0.16032 -0.961957,-0.48097 0,-0.26454 -0.21644,-0.48098 -0.480978,-0.48098 -0.26721,0 -0.480978,-0.28503 -0.480978,-0.64131 0,-0.49879 -0.213769,-0.6413 -0.961957,-0.6413 -0.641304,0 -0.961956,-0.16033 -0.961956,-0.48098 0,-0.33592 -0.338467,-0.48098 -1.122283,-0.48098 -0.783816,0 -1.122283,-0.14506 -1.122283,-0.48098 0,-0.26453 -0.21644,-0.48097 -0.480978,-0.48097 -0.264538,0 -0.480978,-0.21645 -0.480978,-0.48098 0,-0.32066 -0.320652,-0.48098 -0.961957,-0.48098 -0.641304,0 -0.961956,-0.16033 -0.961956,-0.48098 0,-0.26454 -0.21644,-0.48098 -0.480978,-0.48098 -0.264538,0 -0.480979,-0.21644 -0.480979,-0.48098 0,-0.32065 -0.320652,-0.48097 -0.961956,-0.48097 -0.641305,0 -0.961957,-0.16033 -0.961957,-0.48098 0,-0.26454 -0.21644,-0.48098 -0.480978,-0.48098 -0.264538,0 -0.480978,-0.21644 -0.480978,-0.48098 0,-0.26721 -0.285024,-0.48098 -0.641305,-0.48098 -0.35628,0 -0.641304,-0.21377 -0.641304,-0.48098 0,-0.26453 -0.21644,-0.48097 -0.480978,-0.48097 -0.26721,0 -0.480978,-0.28503 -0.480978,-0.64131 0,-0.35628 -0.213769,-0.6413 -0.480979,-0.6413 -0.264538,0 -0.480978,-0.21644 -0.480978,-0.48098 0,-0.26454 -0.21644,-0.48098 -0.480978,-0.48098 -0.264538,0 -0.480978,-0.14429 -0.480978,-0.32065 0,-0.17636 0.21644,-0.32065 0.480978,-0.32065 0.264538,0 0.480978,-0.21644 0.480978,-0.48098 0,-0.26454 0.21644,-0.48098 0.480978,-0.48098 0.26721,0 0.480979,-0.28502 0.480979,-0.6413 0,-0.51916 0.213768,-0.64131 1.122282,-0.64131 0.783816,0 1.122283,-0.14506 1.122283,-0.48098 0,-0.26454 0.21644,-0.48098 0.480978,-0.48098 0.264538,0 0.480978,-0.21644 0.480978,-0.48097 0,-0.26454 0.216441,-0.48098 0.480979,-0.48098 0.264538,0 0.480978,-0.21644 0.480978,-0.48098 0,-0.32065 0.320652,-0.48098 0.961956,-0.48098 0.641305,0 0.961957,-0.16032 0.961957,-0.48098 0,-0.26453 0.21644,-0.48097 0.480978,-0.48097 0.264538,0 0.480978,-0.21645 0.480978,-0.48098 0,-0.32066 0.320653,-0.48098 0.961957,-0.48098 0.641304,0 0.961956,-0.16033 0.961956,-0.48098 0,-0.26721 0.285025,-0.48098 0.641305,-0.48098 0.35628,0 0.641304,-0.21377 0.641304,-0.48098 0,-0.32065 0.320652,-0.48097 0.961957,-0.48097 0.748188,0 0.961956,-0.14252 0.961956,-0.64131 0,-0.49879 0.213768,-0.6413 0.961957,-0.6413 0.641304,0 0.961956,-0.16033 0.961956,-0.48098 0,-0.32065 0.320652,-0.48098 0.961957,-0.48098 0.641304,0 0.961956,-0.16033 0.961956,-0.48098 0,-0.32065 0.320652,-0.48098 0.961957,-0.48098 0.641304,0 0.961956,-0.16032 0.961956,-0.48097 0,-0.33593 0.338467,-0.48098 1.122283,-0.48098 0.783816,0 1.122283,-0.14506 1.122283,-0.48098 0,-0.32065 0.320652,-0.48098 0.961956,-0.48098 0.641304,0 0.961957,-0.16033 0.961957,-0.48098 0,-0.35628 0.374094,-0.48098 1.442934,-0.48098 1.068841,0 1.442936,-0.12469 1.442936,-0.48097 0,-0.33593 0.33847,-0.48098 1.12228,-0.48098 0.78382,0 1.12228,-0.14506 1.12228,-0.48098 0,-0.35628 0.3741,-0.48098 1.44294,-0.48098 1.06884,0 1.44293,-0.1247 1.44293,-0.48098 0,-0.35628 0.3741,-0.48098 1.44294,-0.48098 1.22916,0 1.44293,-0.095 1.44293,-0.6413 0,-0.5463 0.21377,-0.6413 1.44294,-0.6413 1.22916,0 1.44293,0.095 1.44293,0.6413 0,0.35628 0.21377,0.6413 0.48098,0.6413 0.26454,0 0.48098,0.21644 0.48098,0.48098 0,0.33592 0.33847,0.48098 1.12228,0.48098 0.78382,0 1.12228,0.14506 1.12228,0.48098 0,0.26454 0.21644,0.48098 0.48098,0.48098 0.26454,0 0.48098,0.21644 0.48098,0.48098 0,0.32065 0.32065,0.48097 0.96196,0.48097 0.6413,0 0.96195,0.16033 0.96195,0.48098 0,0.32065 0.32066,0.48098 0.96196,0.48098 0.64131,0 0.96196,0.16033 0.96196,0.48098 0,0.32065 0.32065,0.48098 0.96195,0.48098 0.64131,0 0.96196,0.16032 0.96196,0.48098 0,0.3634 0.39191,0.48097 1.60326,0.48097 1.21135,0 1.60326,0.11758 1.60326,0.48098 0,0.35628 0.3741,0.48098 1.44294,0.48098 1.06884,0 1.44293,0.1247 1.44293,0.48098 0,0.38745 0.4988,0.48098 2.56522,0.48098 2.35145,0 2.56522,0.0534 2.56522,0.6413 0,0.5938 0.21377,0.64131 2.88587,0.64131 2.35144,0 2.88587,0.0891 2.88587,0.48097 0,0.41736 1.33605,0.48098 10.10054,0.48098 8.76449,0 10.10054,-0.0636 10.10054,-0.48098 0,-0.39378 0.55224,-0.48097 3.0462,-0.48097 2.83242,0 3.04619,-0.045 3.04619,-0.64131 0,-0.57005 0.21377,-0.6413 1.92392,-0.6413 1.49637,0 1.92391,-0.10689 1.92391,-0.48098 0,-0.36341 0.39191,-0.48098 1.60326,-0.48098 1.21135,0 1.60326,-0.11757 1.60326,-0.48098 0,-0.35628 0.3741,-0.48098 1.44294,-0.48098 1.06884,0 1.44293,-0.12469 1.44293,-0.48097 0,-0.32066 0.32065,-0.48098 0.96196,-0.48098 0.6413,0 0.96195,-0.16033 0.96195,-0.48098 0,-0.33592 0.33847,-0.48098 1.12229,-0.48098 0.78381,0 1.12228,-0.14506 1.12228,-0.48098 0,-0.32065 0.32065,-0.48098 0.96196,-0.48098 0.6413,0 0.96195,-0.16032 0.96195,-0.48097 0,-0.32066 0.32065,-0.48098 0.96196,-0.48098 0.6413,0 0.96196,-0.16033 0.96196,-0.48098 0,-0.26454 0.21644,-0.48098 0.48097,-0.48098 0.26454,0 0.48098,-0.21644 0.48098,-0.48098 0,-0.26454 0.21644,-0.48098 0.48098,-0.48098 0.26721,0 0.48098,-0.28502 0.48098,-0.6413 0,-0.5463 0.21377,-0.6413 1.44293,-0.6413 1.22917,0 1.44294,0.095 1.44294,0.6413 0,0.5558 0.21377,0.6413 1.60326,0.6413 1.21135,0 1.60326,0.11758 1.60326,0.48098 0,0.35628 0.3741,0.48098 1.44293,0.48098 1.06884,0 1.44294,0.1247 1.44294,0.48098 0,0.35628 0.37409,0.48098 1.44293,0.48098 1.06884,0 1.44294,0.1247 1.44294,0.48098 0,0.33592 0.33847,0.48097 1.12228,0.48097 0.78382,0 1.12228,0.14506 1.12228,0.48098 0,0.32065 0.32066,0.48098 0.96196,0.48098 0.64131,0 0.96196,0.16033 0.96196,0.48098 0,0.35628 0.37409,0.48098 1.44293,0.48098 1.06884,0 1.44294,0.1247 1.44294,0.48098 0,0.32065 0.32065,0.48097 0.96195,0.48097 0.64131,0 0.96196,0.16033 0.96196,0.48098 0,0.33592 0.33847,0.48098 1.12228,0.48098 0.78382,0 1.12229,0.14506 1.12229,0.48098 0,0.26454 0.21644,0.48098 0.48097,0.48098 0.26721,0 0.48098,0.28502 0.48098,0.6413 0,0.49879 0.21377,0.64131 0.96196,0.64131 0.6413,0 0.96195,0.16032 0.96195,0.48097 0,0.32066 0.32066,0.48098 0.96196,0.48098 0.64131,0 0.96196,0.16033 0.96196,0.48098 0,0.26454 0.21644,0.48098 0.48098,0.48098 0.26453,0 0.48097,0.21644 0.48097,0.48098 0,0.33592 0.33847,0.48098 1.12229,0.48098 0.78381,0 1.12228,0.14505 1.12228,0.48097 0,0.26454 0.21644,0.48098 0.48098,0.48098 0.26454,0 0.48098,0.21644 0.48098,0.48098 0,0.26454 0.21644,0.48098 0.48097,0.48098 0.26454,0 0.48098,0.21644 0.48098,0.48098 0,0.32065 0.32065,0.48097 0.96196,0.48097 0.6413,0 0.96196,0.16033 0.96196,0.48098 0,0.26454 0.21644,0.48098 0.48097,0.48098 0.26721,0 0.48098,0.28503 0.48098,0.64131 0,0.35628 0.21377,0.6413 0.48098,0.6413 0.26454,0 0.48098,0.21644 0.48098,0.48098 0,0.26454 0.21644,0.48098 0.48098,0.48098 0.29927,0 0.48098,0.30283 0.48098,0.80163 0,0.49879 -0.18171,0.80163 -0.48098,0.80163 -0.26721,0 -0.48098,0.28502 -0.48098,0.6413 0,0.49879 -0.21377,0.64131 -0.96196,0.64131 -0.6413,0 -0.96195,0.16032 -0.96195,0.48097 0,0.26454 -0.21644,0.48098 -0.48098,0.48098 -0.26454,0 -0.48098,0.21644 -0.48098,0.48098 0,0.26454 -0.21644,0.48098 -0.48098,0.48098 -0.26454,0 -0.48098,0.21644 -0.48098,0.48098 0,0.26454 -0.21644,0.48098 -0.48098,0.48098 -0.26453,0 -0.48097,0.21644 -0.48097,0.48097 0,0.33593 -0.33847,0.48098 -1.12229,0.48098 -0.78381,0 -1.12228,0.14506 -1.12228,0.48098 0,0.26454 -0.21644,0.48098 -0.48098,0.48098 -0.26454,0 -0.48098,0.21644 -0.48098,0.48098 0,0.32065 -0.32065,0.48098 -0.96195,0.48098 -0.64131,0 -0.96196,0.16032 -0.96196,0.48097 0,0.32066 -0.32065,0.48098 -0.96196,0.48098 -0.6413,0 -0.96195,0.16033 -0.96195,0.48098 0,0.26454 -0.21644,0.48098 -0.48098,0.48098 -0.26721,0 -0.48098,0.28502 -0.48098,0.6413 0,0.4988 -0.21377,0.64131 -0.96195,0.64131 -0.64131,0 -0.96196,0.16032 -0.96196,0.48098 0,0.33592 -0.33847,0.48097 -1.12228,0.48097 -0.78382,0 -1.12229,0.14506 -1.12229,0.48098 0,0.32065 -0.32065,0.48098 -0.96195,0.48098 -0.64131,0 -0.96196,0.16033 -0.96196,0.48098 0,0.32065 -0.32065,0.48098 -0.96196,0.48098 -0.6413,0 -0.96195,0.16032 -0.96195,0.48097 0,0.36341 -0.39191,0.48098 -1.60326,0.48098 -1.21136,0 -1.60326,0.11758 -1.60326,0.48098 0,0.32065 -0.32066,0.48098 -0.96196,0.48098 -0.64131,0 -0.96196,0.16033 -0.96196,0.48098 0,0.35628 -0.37409,0.48098 -1.44293,0.48098 -1.06884,0 -1.44294,0.12469 -1.44294,0.48097 0,0.36341 -0.3919,0.48098 -1.60326,0.48098 -1.38949,0 -1.60326,0.0855 -1.60326,0.64131 0,0.54629 -0.21377,0.6413 -1.44293,0.6413 -1.06884,0 -1.44294,0.1247 -1.44294,0.48098 0,0.37409 -0.42753,0.48098 -1.92391,0.48098 -1.49638,0 -1.92391,0.10688 -1.92391,0.48098 0,0.3782 -0.44535,0.48097 -2.08424,0.48097 -1.63889,0 -2.08424,0.10278 -2.08424,0.48098 0,0.38479 -0.48098,0.48098 -2.40489,0.48098 -1.92392,0 -2.4049,0.0962 -2.4049,0.48098 0,0.39838 -0.60567,0.48098 -3.52717,0.48098 -2.9215,0 -3.52717,0.0826 -3.52717,0.48098 0,0.40685 -0.76601,0.48097 -4.97011,0.48097 -4.20411,0 -4.97011,0.0741 -4.97011,0.48098 0,0.41544 -1.15791,0.48098 -8.49728,0.48098 -7.33938,0 -8.49729,-0.0655 -8.49729,-0.48098 z"
     id="path3063"
     inkscape:connector-curvature="0" />
  <path
     style="opacity:0;fill:#000000;fill-opacity:1;stroke:#000000;stroke-width:4.57506514;stroke-linecap:round;stroke-linejoin:round;stroke-miterlimit:4;stroke-opacity:1;stroke-dasharray:none"
     d="m 139.2913,151.50815 c 0,-0.40685 -0.766,-0.48098 -4.9701,-0.48098 -4.20411,0 -4.97011,-0.0741 -4.97011,-0.48097 0,-0.39839 -0.60568,-0.48098 -3.52718,-0.48098 -2.92149,0 -3.52717,-0.0826 -3.52717,-0.48098 0,-0.38745 -0.49879,-0.48098 -2.56522,-0.48098 -2.06642,0 -2.56522,-0.0935 -2.56522,-0.48098 0,-0.37409 -0.42753,-0.48098 -1.92391,-0.48098 -1.49638,0 -1.92391,-0.10688 -1.92391,-0.48097 0,-0.35628 -0.3741,-0.48098 -1.44294,-0.48098 -1.06884,0 -1.44293,-0.1247 -1.44293,-0.48098 0,-0.37821 -0.44535,-0.48098 -2.08424,-0.48098 -1.87047,0 -2.08424,-0.0658 -2.08424,-0.6413 0,-0.5463 -0.21377,-0.64131 -1.44293,-0.64131 -1.06884,0 -1.44294,-0.1247 -1.44294,-0.48098 0,-0.33592 -0.33847,-0.48097 -1.12228,-0.48097 -0.78382,0 -1.12228,-0.14506 -1.12228,-0.48098 0,-0.35628 -0.3741,-0.48098 -1.442939,-0.48098 -1.068841,0 -1.442935,-0.1247 -1.442935,-0.48098 0,-0.32065 -0.320652,-0.48098 -0.961956,-0.48098 -0.641305,0 -0.961957,-0.16032 -0.961957,-0.48098 0,-0.3634 -0.391908,-0.48097 -1.603261,-0.48097 -1.211353,0 -1.603261,-0.11758 -1.603261,-0.48098 0,-0.32065 -0.320652,-0.48098 -0.961956,-0.48098 -0.641305,0 -0.961957,-0.16033 -0.961957,-0.48098 0,-0.32065 -0.320652,-0.48098 -0.961956,-0.48098 -0.641305,0 -0.961957,-0.16032 -0.961957,-0.48097 0,-0.26454 -0.21644,-0.48098 -0.480978,-0.48098 -0.26721,0 -0.480978,-0.28503 -0.480978,-0.64131 0,-0.49879 -0.213769,-0.6413 -0.961957,-0.6413 -0.641304,0 -0.961956,-0.16033 -0.961956,-0.48098 0,-0.33592 -0.338467,-0.48098 -1.122283,-0.48098 -0.783816,0 -1.122283,-0.14506 -1.122283,-0.48098 0,-0.26453 -0.21644,-0.48097 -0.480978,-0.48097 -0.264538,0 -0.480978,-0.21645 -0.480978,-0.48098 0,-0.32066 -0.320652,-0.48098 -0.961957,-0.48098 -0.641304,0 -0.961956,-0.16033 -0.961956,-0.48098 0,-0.26454 -0.21644,-0.48098 -0.480978,-0.48098 -0.264538,0 -0.480979,-0.21644 -0.480979,-0.48098 0,-0.32065 -0.320652,-0.48097 -0.961956,-0.48097 -0.641305,0 -0.961957,-0.16033 -0.961957,-0.48098 0,-0.26454 -0.21644,-0.48098 -0.480978,-0.48098 -0.264538,0 -0.480978,-0.21644 -0.480978,-0.48098 0,-0.26721 -0.285024,-0.48098 -0.641305,-0.48098 -0.35628,0 -0.641304,-0.21377 -0.641304,-0.48098 0,-0.26453 -0.21644,-0.48097 -0.480978,-0.48097 -0.26721,0 -0.480978,-0.28503 -0.480978,-0.64131 0,-0.35628 -0.213769,-0.6413 -0.480979,-0.6413 -0.264538,0 -0.480978,-0.21644 -0.480978,-0.48098 0,-0.26454 -0.21644,-0.48098 -0.480978,-0.48098 -0.264538,0 -0.480978,-0.14429 -0.480978,-0.32065 0,-0.17636 0.21644,-0.32065 0.480978,-0.32065 0.264538,0 0.480978,-0.21644 0.480978,-0.48098 0,-0.26454 0.21644,-0.48098 0.480978,-0.48098 0.26721,0 0.480979,-0.28502 0.480979,-0.6413 0,-0.51916 0.213768,-0.64131 1.122282,-0.64131 0.783816,0 1.122283,-0.14506 1.122283,-0.48098 0,-0.26454 0.21644,-0.48098 0.480978,-0.48098 0.264538,0 0.480978,-0.21644 0.480978,-0.48097 0,-0.26454 0.216441,-0.48098 0.480979,-0.48098 0.264538,0 0.480978,-0.21644 0.480978,-0.48098 0,-0.32065 0.320652,-0.48098 0.961956,-0.48098 0.641305,0 0.961957,-0.16032 0.961957,-0.48098 0,-0.26453 0.21644,-0.48097 0.480978,-0.48097 0.264538,0 0.480978,-0.21645 0.480978,-0.48098 0,-0.32066 0.320653,-0.48098 0.961957,-0.48098 0.641304,0 0.961956,-0.16033 0.961956,-0.48098 0,-0.26721 0.285025,-0.48098 0.641305,-0.48098 0.35628,0 0.641304,-0.21377 0.641304,-0.48098 0,-0.32065 0.320652,-0.48097 0.961957,-0.48097 0.748188,0 0.961956,-0.14252 0.961956,-0.64131 0,-0.49879 0.213768,-0.6413 0.961957,-0.6413 0.641304,0 0.961956,-0.16033 0.961956,-0.48098 0,-0.32065 0.320652,-0.48098 0.961957,-0.48098 0.641304,0 0.961956,-0.16033 0.961956,-0.48098 0,-0.32065 0.320652,-0.48098 0.961957,-0.48098 0.641304,0 0.961956,-0.16032 0.961956,-0.48097 0,-0.33593 0.338467,-0.48098 1.122283,-0.48098 0.783816,0 1.122283,-0.14506 1.122283,-0.48098 0,-0.32065 0.320652,-0.48098 0.961956,-0.48098 0.641304,0 0.961957,-0.16033 0.961957,-0.48098 0,-0.35628 0.374094,-0.48098 1.442934,-0.48098 1.068841,0 1.442936,-0.12469 1.442936,-0.48097 0,-0.33593 0.33847,-0.48098 1.12228,-0.48098 0.78382,0 1.12228,-0.14506 1.12228,-0.48098 0,-0.35628 0.3741,-0.48098 1.44294,-0.48098 1.06884,0 1.44293,-0.1247 1.44293,-0.48098 0,-0.35628 0.3741,-0.48098 1.44294,-0.48098 1.22916,0 1.44293,-0.095 1.44293,-0.6413 0,-0.5463 0.21377,-0.6413 1.44294,-0.6413 1.22916,0 1.44293,0.095 1.44293,0.6413 0,0.35628 0.21377,0.6413 0.48098,0.6413 0.26454,0 0.48098,0.21644 0.48098,0.48098 0,0.33592 0.33847,0.48098 1.12228,0.48098 0.78382,0 1.12228,0.14506 1.12228,0.48098 0,0.26454 0.21644,0.48098 0.48098,0.48098 0.26454,0 0.48098,0.21644 0.48098,0.48098 0,0.32065 0.32065,0.48097 0.96196,0.48097 0.6413,0 0.96195,0.16033 0.96195,0.48098 0,0.32065 0.32066,0.48098 0.96196,0.48098 0.64131,0 0.96196,0.16033 0.96196,0.48098 0,0.32065 0.32065,0.48098 0.96195,0.48098 0.64131,0 0.96196,0.16032 0.96196,0.48098 0,0.3634 0.39191,0.48097 1.60326,0.48097 1.21135,0 1.60326,0.11758 1.60326,0.48098 0,0.35628 0.3741,0.48098 1.44294,0.48098 1.06884,0 1.44293,0.1247 1.44293,0.48098 0,0.38745 0.4988,0.48098 2.56522,0.48098 2.35145,0 2.56522,0.0534 2.56522,0.6413 0,0.5938 0.21377,0.64131 2.88587,0.64131 2.35144,0 2.88587,0.0891 2.88587,0.48097 0,0.41736 1.33605,0.48098 10.10054,0.48098 8.76449,0 10.10054,-0.0636 10.10054,-0.48098 0,-0.39378 0.55224,-0.48097 3.0462,-0.48097 2.83242,0 3.04619,-0.045 3.04619,-0.64131 0,-0.57005 0.21377,-0.6413 1.92392,-0.6413 1.49637,0 1.92391,-0.10689 1.92391,-0.48098 0,-0.36341 0.39191,-0.48098 1.60326,-0.48098 1.21135,0 1.60326,-0.11757 1.60326,-0.48098 0,-0.35628 0.3741,-0.48098 1.44294,-0.48098 1.06884,0 1.44293,-0.12469 1.44293,-0.48097 0,-0.32066 0.32065,-0.48098 0.96196,-0.48098 0.6413,0 0.96195,-0.16033 0.96195,-0.48098 0,-0.33592 0.33847,-0.48098 1.12229,-0.48098 0.78381,0 1.12228,-0.14506 1.12228,-0.48098 0,-0.32065 0.32065,-0.48098 0.96196,-0.48098 0.6413,0 0.96195,-0.16032 0.96195,-0.48097 0,-0.32066 0.32065,-0.48098 0.96196,-0.48098 0.6413,0 0.96196,-0.16033 0.96196,-0.48098 0,-0.26454 0.21644,-0.48098 0.48097,-0.48098 0.26454,0 0.48098,-0.21644 0.48098,-0.48098 0,-0.26454 0.21644,-0.48098 0.48098,-0.48098 0.26721,0 0.48098,-0.28502 0.48098,-0.6413 0,-0.5463 0.21377,-0.6413 1.44293,-0.6413 1.22917,0 1.44294,0.095 1.44294,0.6413 0,0.5558 0.21377,0.6413 1.60326,0.6413 1.21135,0 1.60326,0.11758 1.60326,0.48098 0,0.35628 0.3741,0.48098 1.44293,0.48098 1.06884,0 1.44294,0.1247 1.44294,0.48098 0,0.35628 0.37409,0.48098 1.44293,0.48098 1.06884,0 1.44294,0.1247 1.44294,0.48098 0,0.33592 0.33847,0.48097 1.12228,0.48097 0.78382,0 1.12228,0.14506 1.12228,0.48098 0,0.32065 0.32066,0.48098 0.96196,0.48098 0.64131,0 0.96196,0.16033 0.96196,0.48098 0,0.35628 0.37409,0.48098 1.44293,0.48098 1.06884,0 1.44294,0.1247 1.44294,0.48098 0,0.32065 0.32065,0.48097 0.96195,0.48097 0.64131,0 0.96196,0.16033 0.96196,0.48098 0,0.33592 0.33847,0.48098 1.12228,0.48098 0.78382,0 1.12229,0.14506 1.12229,0.48098 0,0.26454 0.21644,0.48098 0.48097,0.48098 0.26721,0 0.48098,0.28502 0.48098,0.6413 0,0.49879 0.21377,0.64131 0.96196,0.64131 0.6413,0 0.96195,0.16032 0.96195,0.48097 0,0.32066 0.32066,0.48098 0.96196,0.48098 0.64131,0 0.96196,0.16033 0.96196,0.48098 0,0.26454 0.21644,0.48098 0.48098,0.48098 0.26453,0 0.48097,0.21644 0.48097,0.48098 0,0.33592 0.33847,0.48098 1.12229,0.48098 0.78381,0 1.12228,0.14505 1.12228,0.48097 0,0.26454 0.21644,0.48098 0.48098,0.48098 0.26454,0 0.48098,0.21644 0.48098,0.48098 0,0.26454 0.21644,0.48098 0.48097,0.48098 0.26454,0 0.48098,0.21644 0.48098,0.48098 0,0.32065 0.32065,0.48097 0.96196,0.48097 0.6413,0 0.96196,0.16033 0.96196,0.48098 0,0.26454 0.21644,0.48098 0.48097,0.48098 0.26721,0 0.48098,0.28503 0.48098,0.64131 0,0.35628 0.21377,0.6413 0.48098,0.6413 0.26454,0 0.48098,0.21644 0.48098,0.48098 0,0.26454 0.21644,0.48098 0.48098,0.48098 0.29927,0 0.48098,0.30283 0.48098,0.80163 0,0.49879 -0.18171,0.80163 -0.48098,0.80163 -0.26721,0 -0.48098,0.28502 -0.48098,0.6413 0,0.49879 -0.21377,0.64131 -0.96196,0.64131 -0.6413,0 -0.96195,0.16032 -0.96195,0.48097 0,0.26454 -0.21644,0.48098 -0.48098,0.48098 -0.26454,0 -0.48098,0.21644 -0.48098,0.48098 0,0.26454 -0.21644,0.48098 -0.48098,0.48098 -0.26454,0 -0.48098,0.21644 -0.48098,0.48098 0,0.26454 -0.21644,0.48098 -0.48098,0.48098 -0.26453,0 -0.48097,0.21644 -0.48097,0.48097 0,0.33593 -0.33847,0.48098 -1.12229,0.48098 -0.78381,0 -1.12228,0.14506 -1.12228,0.48098 0,0.26454 -0.21644,0.48098 -0.48098,0.48098 -0.26454,0 -0.48098,0.21644 -0.48098,0.48098 0,0.32065 -0.32065,0.48098 -0.96195,0.48098 -0.64131,0 -0.96196,0.16032 -0.96196,0.48097 0,0.32066 -0.32065,0.48098 -0.96196,0.48098 -0.6413,0 -0.96195,0.16033 -0.96195,0.48098 0,0.26454 -0.21644,0.48098 -0.48098,0.48098 -0.26721,0 -0.48098,0.28502 -0.48098,0.6413 0,0.4988 -0.21377,0.64131 -0.96195,0.64131 -0.64131,0 -0.96196,0.16032 -0.96196,0.48098 0,0.33592 -0.33847,0.48097 -1.12228,0.48097 -0.78382,0 -1.12229,0.14506 -1.12229,0.48098 0,0.32065 -0.32065,0.48098 -0.96195,0.48098 -0.64131,0 -0.96196,0.16033 -0.96196,0.48098 0,0.32065 -0.32065,0.48098 -0.96196,0.48098 -0.6413,0 -0.96195,0.16032 -0.96195,0.48097 0,0.36341 -0.39191,0.48098 -1.60326,0.48098 -1.21136,0 -1.60326,0.11758 -1.60326,0.48098 0,0.32065 -0.32066,0.48098 -0.96196,0.48098 -0.64131,0 -0.96196,0.16033 -0.96196,0.48098 0,0.35628 -0.37409,0.48098 -1.44293,0.48098 -1.06884,0 -1.44294,0.12469 -1.44294,0.48097 0,0.36341 -0.3919,0.48098 -1.60326,0.48098 -1.38949,0 -1.60326,0.0855 -1.60326,0.64131 0,0.54629 -0.21377,0.6413 -1.44293,0.6413 -1.06884,0 -1.44294,0.1247 -1.44294,0.48098 0,0.37409 -0.42753,0.48098 -1.92391,0.48098 -1.49638,0 -1.92391,0.10688 -1.92391,0.48098 0,0.3782 -0.44535,0.48097 -2.08424,0.48097 -1.63889,0 -2.08424,0.10278 -2.08424,0.48098 0,0.38479 -0.48098,0.48098 -2.40489,0.48098 -1.92392,0 -2.4049,0.0962 -2.4049,0.48098 0,0.39838 -0.60567,0.48098 -3.52717,0.48098 -2.9215,0 -3.52717,0.0826 -3.52717,0.48098 0,0.40685 -0.76601,0.48097 -4.97011,0.48097 -4.20411,0 -4.97011,0.0741 -4.97011,0.48098 0,0.41544 -1.15791,0.48098 -8.49728,0.48098 -7.33938,0 -8.49729,-0.0655 -8.49729,-0.48098 z"
     id="path3065"
     inkscape:connector-curvature="0" />
  <path
     style="opacity:0;fill:#000000;fill-opacity:1;stroke:#000000;stroke-width:4.57506514;stroke-linecap:round;stroke-linejoin:round;stroke-miterlimit:4;stroke-opacity:1;stroke-dasharray:none"
     d="m 80.291304,146.69837 c 0,-0.26454 0.216441,-0.48098 0.480979,-0.48098 0.264538,0 0.480978,0.21644 0.480978,0.48098 0,0.26454 -0.21644,0.48098 -0.480978,0.48098 -0.264538,0 -0.480979,-0.21644 -0.480979,-0.48098 z"
     id="path3067"
     inkscape:connector-curvature="0" />
  <path
     style="opacity:0;fill:#000000;fill-opacity:1;stroke:#000000;stroke-width:4.57506514000000042;stroke-linecap:round;stroke-linejoin:round;stroke-miterlimit:4;stroke-opacity:1;stroke-dasharray:none"
     d="m 145.3837,229.58696 c 0,-0.35628 -0.21377,-0.64131 -0.48098,-0.64131 -0.26454,0 -0.48098,-0.21644 -0.48098,-0.48098 0,-0.26721 -0.28503,-0.48097 -0.64131,-0.48097 -0.57004,0 -0.6413,-0.21377 -0.6413,-1.92392 0,-1.49638 -0.10688,-1.92391 -0.48098,-1.92391 -0.38745,0 -0.48098,-0.49879 -0.48098,-2.56522 0,-2.06642 -0.0935,-2.56522 -0.48097,-2.56522 -0.38479,0 -0.48098,-0.48097 -0.48098,-2.40489 0,-1.92391 -0.0962,-2.40489 -0.48098,-2.40489 -0.38745,0 -0.48098,-0.49879 -0.48098,-2.56522 0,-2.06642 -0.0935,-2.56521 -0.48098,-2.56521 -0.39378,0 -0.48098,-0.55224 -0.48098,-3.0462 0,-2.49396 -0.0872,-3.04619 -0.48097,-3.04619 -0.38479,0 -0.48098,-0.48098 -0.48098,-2.4049 0,-1.92391 -0.0962,-2.40489 -0.48098,-2.40489 -0.38745,0 -0.48098,-0.49879 -0.48098,-2.56521 0,-2.06643 -0.0935,-2.56522 -0.48098,-2.56522 -0.38478,0 -0.48098,-0.48098 -0.48098,-2.40489 0,-1.92392 -0.0962,-2.40489 -0.48097,-2.40489 -0.38746,0 -0.48098,-0.4988 -0.48098,-2.56522 0,-2.35145 -0.0534,-2.56522 -0.64131,-2.56522 -0.35628,0 -0.6413,-0.21377 -0.6413,-0.48098 0,-0.26454 -0.21644,-0.48098 -0.48098,-0.48098 -0.26454,0 -0.48098,0.21644 -0.48098,0.48098 0,0.26454 -0.21644,0.48098 -0.48098,0.48098 -0.26453,0 -0.48097,0.21644 -0.48097,0.48098 0,0.26454 -0.21644,0.48098 -0.48098,0.48098 -0.26454,0 -0.48098,0.21644 -0.48098,0.48098 0,0.26721 -0.28502,0.48097 -0.6413,0.48097 -0.35628,0 -0.64131,0.21377 -0.64131,0.48098 0,0.26454 -0.21644,0.48098 -0.48098,0.48098 -0.26454,0 -0.48098,0.21644 -0.48098,0.48098 0,0.26454 -0.21644,0.48098 -0.48097,0.48098 -0.26721,0 -0.48098,0.28502 -0.48098,0.6413 0,0.35628 -0.21377,0.64131 -0.48098,0.64131 -0.26454,0 -0.48098,0.21644 -0.48098,0.48097 0,0.26454 -0.21644,0.48098 -0.48098,0.48098 -0.26453,0 -0.48097,0.21644 -0.48097,0.48098 0,0.26454 -0.21645,0.48098 -0.48098,0.48098 -0.26454,0 -0.48098,0.21644 -0.48098,0.48098 0,0.32065 -0.32065,0.48098 -0.96196,0.48098 -0.6413,0 -0.96195,0.16032 -0.96195,0.48097 0,0.26721 -0.28503,0.48098 -0.64131,0.48098 -0.35628,0 -0.6413,0.21377 -0.6413,0.48098 0,0.26454 -0.21644,0.48098 -0.48098,0.48098 -0.26454,0 -0.48098,0.21644 -0.48098,0.48098 0,0.38478 -0.48098,0.48098 -2.40489,0.48098 -1.92391,0 -2.40489,-0.0962 -2.40489,-0.48098 0,-0.26454 -0.21644,-0.48098 -0.48098,-0.48098 -0.26454,0 -0.48098,-0.21644 -0.48098,-0.48098 0,-0.26454 -0.21644,-0.48098 -0.48098,-0.48098 -0.40081,0 -0.48098,-0.6413 -0.48098,-3.84782 0,-3.20653 0.0802,-3.84783 0.48098,-3.84783 0.39839,0 0.48098,-0.60568 0.48098,-3.52717 0,-2.9215 0.0826,-3.52718 0.48098,-3.52718 0.40188,0 0.48098,-0.65912 0.48098,-4.00815 0,-3.34903 0.0791,-4.00815 0.48098,-4.00815 0.39838,0 0.48097,-0.60568 0.48097,-3.52718 0,-2.92149 0.0826,-3.52717 0.48098,-3.52717 0.36341,0 0.48098,-0.39191 0.48098,-1.60326 l 0,-1.60326 -1.92391,0 c -1.49638,0 -1.92392,-0.10688 -1.92392,-0.48098 0,-0.3741 -0.42753,-0.48098 -1.92391,-0.48098 -1.49638,0 -1.92391,-0.10688 -1.92391,-0.48098 0,-0.3782 -0.44535,-0.48097 -2.08424,-0.48097 -1.63889,0 -2.08424,-0.10278 -2.08424,-0.48098 0,-0.35628 -0.37409,-0.48098 -1.44293,-0.48098 -1.06884,0 -1.44294,-0.1247 -1.44294,-0.48098 0,-0.3634 -0.39191,-0.48098 -1.60326,-0.48098 -1.21135,0 -1.60326,-0.11757 -1.60326,-0.48098 0,-0.3634 -0.391908,-0.48097 -1.603262,-0.48097 -1.211353,0 -1.603261,-0.11758 -1.603261,-0.48098 0,-0.85861 -0.584423,-0.50795 -0.80163,0.48098 -0.116204,0.52907 -0.416258,0.96195 -0.666783,0.96195 -0.250523,0 -0.4555,0.21644 -0.4555,0.48098 0,0.26454 -0.21644,0.48098 -0.480978,0.48098 -0.320652,0 -0.480978,0.32065 -0.480978,0.96196 0,0.6413 -0.160326,0.96195 -0.480978,0.96195 -0.320653,0 -0.480979,0.32065 -0.480979,0.96196 0,0.6413 -0.160326,0.96195 -0.480978,0.96195 -0.264538,0 -0.480978,0.21644 -0.480978,0.48098 0,0.26454 -0.21644,0.48098 -0.480978,0.48098 -0.335922,0 -0.480979,0.33847 -0.480979,1.12228 0,0.78382 -0.145057,1.12229 -0.480978,1.12229 -0.264538,0 -0.480978,0.21644 -0.480978,0.48097 0,0.26454 -0.21644,0.48098 -0.480979,0.48098 -0.320652,0 -0.480978,0.32066 -0.480978,0.96196 0,0.74819 -0.142512,0.96196 -0.641304,0.96196 -0.35628,0 -0.641304,0.21377 -0.641304,0.48097 0,0.26454 -0.216441,0.48098 -0.480979,0.48098 -0.320652,0 -0.480978,0.32065 -0.480978,0.96196 0,0.6413 -0.160326,0.96196 -0.480978,0.96196 -0.264538,0 -0.480979,0.21644 -0.480979,0.48097 0,0.26454 -0.21644,0.48098 -0.480978,0.48098 -0.335921,0 -0.480978,0.33847 -0.480978,1.12228 0,0.78382 -0.145057,1.12229 -0.480978,1.12229 -0.264538,0 -0.480979,0.21644 -0.480979,0.48098 0,0.26453 -0.21644,0.48097 -0.480978,0.48097 -0.264538,0 -0.480978,0.21644 -0.480978,0.48098 0,0.38478 -0.480978,0.48098 -2.404891,0.48098 -1.923913,0 -2.404892,-0.0962 -2.404892,-0.48098 0,-0.26454 -0.21644,-0.48098 -0.480978,-0.48098 -0.264538,0 -0.480978,-0.21644 -0.480978,-0.48097 0,-0.26721 -0.285024,-0.48098 -0.641305,-0.48098 -0.519151,0 -0.641304,-0.21377 -0.641304,-1.12229 0,-0.78381 -0.145057,-1.12228 -0.480978,-1.12228 -0.264538,0 -0.480978,-0.14429 -0.480978,-0.32065 0,-0.17636 0.21644,-0.32065 0.480978,-0.32065 0.320652,0 0.480978,-0.32065 0.480978,-0.96196 0,-0.74819 0.142512,-0.96196 0.641304,-0.96196 0.519152,0 0.641305,-0.21376 0.641305,-1.12228 0,-0.78381 0.145057,-1.12228 0.480978,-1.12228 0.264538,0 0.480978,-0.21644 0.480978,-0.48098 0,-0.26454 0.216441,-0.48098 0.480979,-0.48098 0.320652,0 0.480978,-0.32065 0.480978,-0.96195 0,-0.64131 0.160326,-0.96196 0.480978,-0.96196 0.320652,0 0.480978,-0.32065 0.480978,-0.96196 0,-0.6413 0.160326,-0.96195 0.480979,-0.96195 0.264538,0 0.480978,-0.21644 0.480978,-0.48098 0,-0.26454 0.21644,-0.48098 0.480978,-0.48098 0.335921,0 0.480978,-0.33847 0.480978,-1.12228 0,-0.78382 0.145057,-1.12228 0.480979,-1.12228 0.264538,0 0.480978,-0.21645 0.480978,-0.48098 0,-0.26454 0.21644,-0.48098 0.480978,-0.48098 0.320652,0 0.480978,-0.32065 0.480978,-0.96196 0,-0.74819 0.142512,-0.96195 0.641305,-0.96195 0.35628,0 0.641304,-0.21377 0.641304,-0.48098 0,-0.26454 0.21644,-0.48098 0.480978,-0.48098 0.320653,0 0.480979,-0.32065 0.480979,-0.96196 0,-0.6413 0.160326,-0.96195 0.480978,-0.96195 0.335921,0 0.480978,-0.33847 0.480978,-1.12229 0,-0.78381 -0.145057,-1.12228 -0.480978,-1.12228 -0.264538,0 -0.480978,-0.21644 -0.480978,-0.48098 0,-0.33592 -0.338467,-0.48098 -1.122283,-0.48098 -0.783816,0 -1.122283,-0.14505 -1.122283,-0.48097 0,-0.32066 -0.320652,-0.48098 -0.961956,-0.48098 -0.641304,0 -0.961957,-0.16033 -0.961957,-0.48098 0,-0.32065 -0.320652,-0.48098 -0.961956,-0.48098 -0.748188,0 -0.961957,-0.14251 -0.961957,-0.6413 0,-0.35628 -0.213768,-0.64131 -0.480978,-0.64131 -0.264538,0 -0.480978,-0.21644 -0.480978,-0.48098 0,-0.32065 -0.320652,-0.48097 -0.961957,-0.48097 -0.641304,0 -0.961956,-0.16033 -0.961956,-0.48098 0,-0.26721 -0.285024,-0.48098 -0.641305,-0.48098 -0.35628,0 -0.641304,-0.21377 -0.641304,-0.48098 0,-0.32065 -0.320652,-0.48098 -0.961956,-0.48098 -0.641305,0 -0.961957,-0.16032 -0.961957,-0.48098 0,-0.26453 -0.21644,-0.48097 -0.480978,-0.48097 -0.264538,0 -0.480978,-0.21644 -0.480978,-0.48098 0,-0.32065 -0.320653,-0.48098 -0.961957,-0.48098 -0.641304,0 -0.961957,-0.16033 -0.961957,-0.48098 0,-0.26454 -0.21644,-0.48098 -0.480978,-0.48098 -0.264538,0 -0.480978,-0.21644 -0.480978,-0.48097 0,-0.26454 -0.21644,-0.48098 -0.480978,-0.48098 -0.26721,0 -0.480979,-0.28503 -0.480979,-0.64131 0,-0.35628 -0.213768,-0.6413 -0.480978,-0.6413 -0.264538,0 -0.480978,-0.21644 -0.480978,-0.48098 0,-0.26721 -0.285024,-0.48098 -0.641304,-0.48098 -0.356281,0 -0.641305,-0.21377 -0.641305,-0.48098 0,-0.26453 -0.21644,-0.48097 -0.480978,-0.48097 -0.264538,0 -0.480978,-0.21645 -0.480978,-0.48098 0,-0.26454 -0.216441,-0.48098 -0.480979,-0.48098 -0.264538,0 -0.480978,-0.21644 -0.480978,-0.48098 0,-0.26454 -0.21644,-0.48098 -0.480978,-0.48098 -0.264538,0 -0.480978,-0.21644 -0.480978,-0.48098 0,-0.26453 -0.216441,-0.48097 -0.480979,-0.48097 -0.264538,0 -0.480978,-0.21644 -0.480978,-0.48098 0,-0.26454 -0.21644,-0.48098 -0.480978,-0.48098 -0.264538,0 -0.480978,-0.21644 -0.480978,-0.48098 0,-0.26454 -0.216441,-0.48098 -0.480979,-0.48098 -0.264538,0 -0.480978,-0.21644 -0.480978,-0.48098 0,-0.26453 -0.21644,-0.48097 -0.480978,-0.48097 -0.374094,0 -0.480978,-0.42754 -0.480978,-1.92392 0,-1.49637 0.106884,-1.92391 0.480978,-1.92391 0.26721,0 0.480978,-0.28502 0.480978,-0.6413 0,-0.35628 0.213768,-0.64131 0.480978,-0.64131 0.320653,0 0.480979,-0.32065 0.480979,-0.96196 0,-0.6413 0.160326,-0.96195 0.480978,-0.96195 0.264538,0 0.480978,-0.21644 0.480978,-0.48098 0,-0.26454 0.21644,-0.48098 0.480978,-0.48098 0.264538,0 0.480979,-0.21644 0.480979,-0.48098 0,-0.26453 0.21644,-0.48097 0.480978,-0.48097 0.264538,0 0.480978,-0.21645 0.480978,-0.48098 0,-0.26454 0.21644,-0.48098 0.480978,-0.48098 0.264538,0 0.480979,-0.21644 0.480979,-0.48098 0,-0.26454 0.21644,-0.48098 0.480978,-0.48098 0.264538,0 0.480978,-0.21644 0.480978,-0.48098 0,-0.33592 0.338467,-0.48097 1.122283,-0.48097 0.908514,0 1.122282,-0.12216 1.122282,-0.64131 0,-0.35628 0.213769,-0.6413 0.480979,-0.6413 0.264538,0 0.480978,-0.21644 0.480978,-0.48098 0,-0.26454 0.21644,-0.48098 0.480978,-0.48098 0.264538,0 0.480978,-0.21644 0.480978,-0.48098 0,-0.26454 0.216441,-0.48098 0.480979,-0.48098 0.264538,0 0.480978,-0.21644 0.480978,-0.48097 0,-0.32066 0.320652,-0.48098 0.961957,-0.48098 0.641304,0 0.961956,-0.16033 0.961956,-0.48098 0,-0.26454 0.21644,-0.48098 0.480978,-0.48098 0.264538,0 0.480979,-0.21644 0.480979,-0.48098 0,-0.26454 0.21644,-0.48098 0.480978,-0.48098 0.264538,0 0.480978,-0.21644 0.480978,-0.48097 0,-0.33593 0.338466,-0.48098 1.122283,-0.48098 0.783816,0 1.122282,-0.14506 1.122282,-0.48098 0,-0.32065 0.320652,-0.48098 0.961957,-0.48098 0.641304,0 0.961956,-0.16032 0.961956,-0.48098 0,-0.26454 0.216441,-0.48098 0.480979,-0.48098 0.26721,0 0.480978,-0.28502 0.480978,-0.6413 0,-0.49879 0.213768,-0.6413 0.961956,-0.6413 0.641305,0 0.961957,-0.16033 0.961957,-0.48098 0,-0.33592 0.338466,-0.48098 1.122283,-0.48098 0.783816,0 1.122282,-0.14506 1.122282,-0.48098 0,-0.32065 0.320652,-0.48098 0.961957,-0.48098 0.641304,0 0.961956,-0.16032 0.961956,-0.48098 0,-0.32065 0.320652,-0.48097 0.961957,-0.48097 0.641304,0 0.961956,-0.16033 0.961956,-0.48098 0,-0.32065 0.320652,-0.48098 0.961957,-0.48098 0.641304,0 0.961956,-0.16033 0.961956,-0.48098 0,-0.3634 0.391908,-0.48098 1.603261,-0.48098 1.211353,0 1.603261,-0.11757 1.603261,-0.48097 0,-0.32066 0.320652,-0.48098 0.961957,-0.48098 0.641304,0 0.961956,-0.16033 0.961956,-0.48098 0,-0.35628 0.374095,-0.48098 1.442935,-0.48098 1.229165,0 1.442935,-0.095 1.442935,-0.641304 0,-0.555796 0.213769,-0.641304 1.603257,-0.641304 1.21136,0 1.60326,-0.117574 1.60326,-0.480979 0,-0.356279 0.3741,-0.480978 1.44294,-0.480978 1.06884,0 1.44293,-0.124698 1.44293,-0.480978 0,-0.35628 0.3741,-0.480978 1.44294,-0.480978 1.06884,0 1.44293,-0.124699 1.44293,-0.480979 0,-0.264538 0.21644,-0.480978 0.48098,-0.480978 0.32065,0 0.48098,-0.320652 0.48098,-0.961956 0,-0.748189 0.14251,-0.961957 0.6413,-0.961957 0.4988,0 0.64131,-0.213768 0.64131,-0.961956 0,-0.641305 0.16032,-0.961957 0.48098,-0.961957 0.33592,0 0.48098,-0.338466 0.48098,-1.122283 0,-0.783816 0.14505,-1.122282 0.48097,-1.122282 0.32066,0 0.48098,-0.320652 0.48098,-0.961957 0,-0.641304 0.16033,-0.961956 0.48098,-0.961956 0.26454,0 0.48098,-0.21644 0.48098,-0.480978 0,-0.264538 0.21644,-0.480979 0.48098,-0.480979 0.32065,0 0.48097,-0.320652 0.48097,-0.961956 0,-0.641305 0.16033,-0.961957 0.48098,-0.961957 0.26454,0 0.48098,-0.21644 0.48098,-0.480978 0,-0.264538 0.21644,-0.480978 0.48098,-0.480978 0.33592,0 0.48098,-0.338467 0.48098,-1.122283 0,-0.783816 0.14505,-1.122282 0.48098,-1.122282 0.26453,0 0.48097,-0.216441 0.48097,-0.480979 0,-0.264538 0.21644,-0.480978 0.48098,-0.480978 0.26454,0 0.48098,-0.21644 0.48098,-0.480978 0,-0.26721 0.28503,-0.480979 0.64131,-0.480979 0.35628,0 0.6413,-0.213768 0.6413,-0.480978 0,-0.264538 0.21644,-0.480978 0.48098,-0.480978 0.26454,0 0.48098,-0.21644 0.48098,-0.480978 0,-0.264538 0.21644,-0.480979 0.48097,-0.480979 0.26454,0 0.48098,-0.21644 0.48098,-0.480978 0,-0.264538 0.21644,-0.480978 0.48098,-0.480978 0.26454,0 0.48098,-0.21644 0.48098,-0.480978 0,-0.264538 0.21644,-0.480979 0.48098,-0.480979 0.26454,0 0.48098,-0.21644 0.48098,-0.480978 0,-0.264538 0.21644,-0.480978 0.48097,-0.480978 0.26721,0 0.48098,-0.285024 0.48098,-0.641304 0,-0.356281 0.21377,-0.641305 0.48098,-0.641305 0.26454,0 0.48098,-0.21644 0.48098,-0.480978 0,-0.264538 0.21644,-0.480978 0.48098,-0.480978 0.26453,0 0.48098,-0.216441 0.48098,-0.480979 0,-0.335921 0.33846,-0.480978 1.12228,-0.480978 0.78381,0 1.12228,-0.145057 1.12228,-0.480978 0,-0.264538 0.21644,-0.480978 0.48098,-0.480978 0.26454,0 0.48098,-0.216441 0.48098,-0.480979 0,-0.320652 0.32065,-0.480978 0.96195,-0.480978 0.64131,0 0.96196,-0.160326 0.96196,-0.480978 0,-0.320652 0.32065,-0.480978 0.96196,-0.480978 0.6413,0 0.96195,-0.160327 0.96195,-0.480979 0,-0.363405 0.39191,-0.480978 1.60326,-0.480978 1.21136,0 1.60326,-0.117573 1.60326,-0.480978 0,-0.35628 0.3741,-0.480978 1.44294,-0.480978 1.22917,0 1.44293,-0.09501 1.44293,-0.641305 0,-0.587862 0.21377,-0.641304 2.56522,-0.641304 2.06643,0 2.56522,-0.09352 2.56522,-0.480978 0,-0.400816 0.6413,-0.480979 3.84783,-0.480979 3.20652,0 3.84782,0.08016 3.84782,0.480979 0,0.387454 0.49879,0.480978 2.56522,0.480978 2.35145,0 2.56522,0.05344 2.56522,0.641304 0,0.546296 0.21377,0.641305 1.44293,0.641305 1.06884,0 1.44294,0.124698 1.44294,0.480978 0,0.320652 0.32065,0.480978 0.96195,0.480978 0.64131,0 0.96196,0.160326 0.96196,0.480978 0,0.320652 0.32065,0.480979 0.96196,0.480979 0.6413,0 0.96195,0.160326 0.96195,0.480978 0,0.335921 0.33847,0.480978 1.12228,0.480978 0.78382,0 1.12229,0.145057 1.12229,0.480978 0,0.264538 0.21644,0.480979 0.48098,0.480979 0.26453,0 0.48097,0.21644 0.48097,0.480978 0,0.320652 0.32066,0.480978 0.96196,0.480978 0.6413,0 0.96196,0.160326 0.96196,0.480978 0,0.264538 0.21644,0.480979 0.48097,0.480979 0.26454,0 0.48098,0.21644 0.48098,0.480978 0,0.264538 0.21644,0.480978 0.48098,0.480978 0.26721,0 0.48098,0.285024 0.48098,0.641305 0,0.519151 0.21377,0.641304 1.12228,0.641304 0.78382,0 1.12228,0.145057 1.12228,0.480978 0,0.264538 0.21644,0.480978 0.48098,0.480978 0.26454,0 0.48098,0.216441 0.48098,0.480979 0,0.264538 0.21644,0.480978 0.48098,0.480978 0.26454,0 0.48098,0.21644 0.48098,0.480978 0,0.264538 0.21644,0.480978 0.48098,0.480978 0.32065,0 0.48097,0.320653 0.48097,0.961957 0,0.641304 0.16033,0.961956 0.48098,0.961956 0.26454,0 0.48098,0.216441 0.48098,0.480979 0,0.264538 0.21644,0.480978 0.48098,0.480978 0.26454,0 0.48098,0.21644 0.48098,0.480978 0,0.264538 0.21644,0.480979 0.48098,0.480979 0.2672,0 0.48097,0.285024 0.48097,0.641304 0,0.35628 0.21377,0.641304 0.48098,0.641304 0.32065,0 0.48098,0.320652 0.48098,0.961957 0,0.748188 0.14251,0.961956 0.6413,0.961956 0.35628,0 0.64131,0.213768 0.64131,0.480979 0,0.264538 0.21644,0.480978 0.48098,0.480978 0.32065,0 0.48098,0.320652 0.48098,0.961956 0,0.641305 0.16032,0.961957 0.48097,0.961957 0.32066,0 0.48098,0.320652 0.48098,0.961956 0,0.641305 0.16033,0.961957 0.48098,0.961957 0.26454,0 0.48098,0.21644 0.48098,0.480978 0,0.264538 0.21644,0.480978 0.48098,0.480978 0.33592,0 0.48098,0.338467 0.48098,1.122283 0,0.783816 0.14505,1.122283 0.48097,1.122283 0.35628,0 0.48098,0.374094 0.48098,1.442934 0,1.068841 0.1247,1.442935 0.48098,1.442935 0.26454,0 0.48098,0.21644 0.48098,0.480978 0,0.363405 0.39191,0.480979 1.60326,0.480979 1.21135,0 1.60326,0.117573 1.60326,0.480978 0,0.374095 0.42754,0.480978 1.92391,0.480978 1.49638,0 1.92392,0.106883 1.92392,0.480978 0,0.320653 0.32065,0.480979 0.96195,0.480979 0.74819,0 0.96196,0.14251 0.96196,0.641304 0,0.555794 0.21377,0.641304 1.60326,0.641304 1.21135,0 1.60326,0.11757 1.60326,0.48098 0,0.35628 0.3741,0.48098 1.44294,0.48098 1.06884,0 1.44293,0.1247 1.44293,0.48098 0,0.32065 0.32065,0.48097 0.96196,0.48097 0.6413,0 0.96195,0.16033 0.96195,0.48098 0,0.33592 0.33847,0.48098 1.12229,0.48098 0.78381,0 1.12228,0.14506 1.12228,0.48098 0,0.32065 0.32065,0.48098 0.96196,0.48098 0.6413,0 0.96195,0.16032 0.96195,0.48097 0,0.32066 0.32065,0.48098 0.96196,0.48098 0.6413,0 0.96195,0.16033 0.96195,0.48098 0,0.32065 0.32066,0.48098 0.96196,0.48098 0.64131,0 0.96196,0.16033 0.96196,0.48098 0,0.32065 0.32065,0.48098 0.96195,0.48098 0.74819,0 0.96196,0.14251 0.96196,0.6413 0,0.51915 0.21377,0.6413 1.12228,0.6413 0.78382,0 1.12229,0.14506 1.12229,0.48098 0,0.26454 0.21644,0.48098 0.48097,0.48098 0.26454,0 0.48098,0.21644 0.48098,0.48098 0,0.32065 0.32065,0.48098 0.96196,0.48098 0.6413,0 0.96196,0.16032 0.96196,0.48098 0,0.26453 0.21644,0.48097 0.48097,0.48097 0.26454,0 0.48098,0.21644 0.48098,0.48098 0,0.32065 0.32065,0.48098 0.96196,0.48098 0.6413,0 0.96196,0.16033 0.96196,0.48098 0,0.26721 0.28502,0.48098 0.6413,0.48098 0.35628,0 0.6413,0.21377 0.6413,0.48098 0,0.26453 0.21644,0.48097 0.48098,0.48097 0.26454,0 0.48098,0.21644 0.48098,0.48098 0,0.32065 0.32065,0.48098 0.96196,0.48098 0.6413,0 0.96195,0.16033 0.96195,0.48098 0,0.26454 0.21644,0.48098 0.48098,0.48098 0.26721,0 0.48098,0.28502 0.48098,0.6413 0,0.35628 0.21377,0.64131 0.48098,0.64131 0.26454,0 0.48098,0.21644 0.48098,0.48097 0,0.26454 0.21644,0.48098 0.48097,0.48098 0.26454,0 0.48098,0.21644 0.48098,0.48098 0,0.26454 0.21644,0.48098 0.48098,0.48098 0.26454,0 0.48098,0.21644 0.48098,0.48098 0,0.26453 0.21644,0.48098 0.48098,0.48098 0.26454,0 0.48098,0.21644 0.48098,0.48097 0,0.26721 0.28502,0.48098 0.6413,0.48098 0.35628,0 0.6413,0.21377 0.6413,0.48098 0,0.26454 0.21644,0.48098 0.48098,0.48098 0.26454,0 0.48098,0.21644 0.48098,0.48098 0,0.26453 0.21644,0.48097 0.48098,0.48097 0.26454,0 0.48098,0.21644 0.48098,0.48098 0,0.26454 0.21644,0.48098 0.48098,0.48098 0.38745,0 0.48097,0.49879 0.48097,2.56522 0,2.06642 -0.0935,2.56522 -0.48097,2.56522 -0.26454,0 -0.48098,0.21644 -0.48098,0.48097 0,0.26454 -0.21644,0.48098 -0.48098,0.48098 -0.32065,0 -0.48098,0.32065 -0.48098,0.96196 0,0.6413 -0.16032,0.96196 -0.48098,0.96196 -0.26454,0 -0.48098,0.21644 -0.48098,0.48097 0,0.26721 -0.28502,0.48098 -0.6413,0.48098 -0.35628,0 -0.6413,0.21377 -0.6413,0.48098 0,0.26454 -0.21644,0.48098 -0.48098,0.48098 -0.26454,0 -0.48098,0.21644 -0.48098,0.48098 0,0.26453 -0.21644,0.48098 -0.48098,0.48098 -0.26454,0 -0.48098,0.21644 -0.48098,0.48097 0,0.26454 -0.21644,0.48098 -0.48098,0.48098 -0.26453,0 -0.48097,0.21644 -0.48097,0.48098 0,0.32065 -0.32066,0.48098 -0.96196,0.48098 -0.74819,0 -0.96196,0.14251 -0.96196,0.6413 0,0.35628 -0.21377,0.64131 -0.48097,0.64131 -0.26454,0 -0.48098,0.21644 -0.48098,0.48098 0,0.26453 -0.21644,0.48097 -0.48098,0.48097 -0.26454,0 -0.48098,0.21644 -0.48098,0.48098 0,0.26454 -0.21644,0.48098 -0.48098,0.48098 -0.26454,0 -0.48098,0.21644 -0.48098,0.48098 0,0.33592 -0.33846,0.48098 -1.12228,0.48098 -0.78381,0 -1.12228,0.14505 -1.12228,0.48097 0,0.26454 -0.21644,0.48098 -0.48098,0.48098 -0.26454,0 -0.48098,0.21644 -0.48098,0.48098 0,0.32065 -0.32065,0.48098 -0.96195,0.48098 -0.64131,0 -0.96196,0.16033 -0.96196,0.48098 0,0.26454 -0.21644,0.48098 -0.48098,0.48098 -0.26454,0 -0.48098,0.21644 -0.48098,0.48097 0,0.32066 -0.32065,0.48098 -0.96195,0.48098 -0.74819,0 -0.96196,0.14251 -0.96196,0.64131 0,0.51915 -0.21377,0.6413 -1.12228,0.6413 -0.78382,0 -1.12229,0.14506 -1.12229,0.48098 0,0.26454 -0.21644,0.48098 -0.48097,0.48098 -0.26454,0 -0.48098,0.21644 -0.48098,0.48098 0,0.32065 -0.32065,0.48097 -0.96196,0.48097 -0.6413,0 -0.96196,0.16033 -0.96196,0.48098 0,0.32065 -0.32065,0.48098 -0.96195,0.48098 -0.94058,0 -0.96196,0.0356 -0.96196,1.60326 0,1.21136 0.11758,1.60326 0.48098,1.60326 0.26454,0 0.48098,0.21644 0.48098,0.48098 0,0.26454 0.21644,0.48098 0.48098,0.48098 0.32065,0 0.48097,0.32065 0.48097,0.96196 0,0.6413 0.16033,0.96195 0.48098,0.96195 0.26454,0 0.48098,0.21644 0.48098,0.48098 0,0.26454 0.21644,0.48098 0.48098,0.48098 0.32065,0 0.48098,0.32065 0.48098,0.96196 0,0.6413 0.16032,0.96195 0.48098,0.96195 0.26721,0 0.48097,0.28503 0.48097,0.64131 0,0.35628 0.21377,0.6413 0.48098,0.6413 0.32065,0 0.48098,0.32065 0.48098,0.96196 0,0.74818 0.14251,0.96195 0.64131,0.96195 0.35628,0 0.6413,0.21377 0.6413,0.48098 0,0.26454 0.21644,0.48098 0.48098,0.48098 0.32065,0 0.48098,0.32065 0.48098,0.96196 0,0.6413 0.16032,0.96195 0.48097,0.96195 0.26454,0 0.48098,0.21644 0.48098,0.48098 0,0.26454 0.21644,0.48098 0.48098,0.48098 0.33592,0 0.48098,0.33847 0.48098,1.12228 0,0.78382 0.14506,1.12228 0.48098,1.12228 0.38478,0 0.48098,0.48098 0.48098,2.4049 0,1.92391 -0.0962,2.40489 -0.48098,2.40489 -0.26454,0 -0.48098,0.21644 -0.48098,0.48098 0,0.26453 -0.21644,0.48097 -0.48098,0.48097 -0.26454,0 -0.48098,0.21644 -0.48098,0.48098 0,0.38478 -0.48098,0.48098 -2.40489,0.48098 -1.92391,0 -2.40489,-0.0962 -2.40489,-0.48098 0,-0.26454 -0.21644,-0.48098 -0.48098,-0.48098 -0.26454,0 -0.48098,-0.21644 -0.48098,-0.48097 0,-0.26721 -0.28502,-0.48098 -0.6413,-0.48098 -0.35628,0 -0.64131,-0.21377 -0.64131,-0.48098 0,-0.26454 -0.21644,-0.48098 -0.48097,-0.48098 -0.33593,0 -0.48098,-0.33847 -0.48098,-1.12228 0,-0.78382 -0.14506,-1.12228 -0.48098,-1.12228 -0.26454,0 -0.48098,-0.21644 -0.48098,-0.48098 0,-0.26454 -0.21644,-0.48098 -0.48098,-0.48098 -0.32065,0 -0.48097,-0.32065 -0.48097,-0.96196 0,-0.6413 -0.16033,-0.96195 -0.48098,-0.96195 -0.32066,0 -0.48098,-0.32066 -0.48098,-0.96196 0,-0.6413 -0.16033,-0.96196 -0.48098,-0.96196 -0.26454,0 -0.48098,-0.21644 -0.48098,-0.48098 0,-0.26453 -0.21644,-0.48097 -0.48098,-0.48097 -0.33592,0 -0.48097,-0.33847 -0.48097,-1.12229 0,-0.78381 -0.14506,-1.12228 -0.48098,-1.12228 -0.26454,0 -0.48098,-0.21644 -0.48098,-0.48098 0,-0.26454 -0.21644,-0.48098 -0.48098,-0.48098 -0.32065,0 -0.48098,-0.32065 -0.48098,-0.96195 0,-0.74819 -0.14251,-0.96196 -0.6413,-0.96196 -0.35628,0 -0.64131,-0.21377 -0.64131,-0.48098 0,-0.26453 -0.21644,-0.48097 -0.48097,-0.48097 -0.32066,0 -0.48098,-0.32066 -0.48098,-0.96196 0,-0.64131 -0.16033,-0.96196 -0.48098,-0.96196 -0.26454,0 -0.48098,-0.21644 -0.48098,-0.48098 0,-0.3634 -0.39191,-0.48097 -1.60326,-0.48097 -1.21135,0 -1.60326,0.11757 -1.60326,0.48097 0,0.35628 -0.3741,0.48098 -1.44294,0.48098 -1.06884,0 -1.44293,0.1247 -1.44293,0.48098 0,0.37821 -0.44535,0.48098 -2.08424,0.48098 -1.63889,0 -2.08424,0.10277 -2.08424,0.48098 0,0.35628 -0.37409,0.48098 -1.44293,0.48098 -1.06884,0 -1.44294,0.12469 -1.44294,0.48097 0,0.38479 -0.48098,0.48098 -2.40489,0.48098 -1.92391,0 -2.40489,0.0962 -2.40489,0.48098 0,0.37821 -0.44535,0.48098 -2.08424,0.48098 -1.87047,0 -2.08424,0.0658 -2.08424,0.6413 0,0.35628 0.21377,0.64131 0.48098,0.64131 0.39838,0 0.48098,0.60567 0.48098,3.52717 0,2.9215 0.0826,3.52717 0.48098,3.52717 0.40188,0 0.48097,0.65912 0.48097,4.00816 0,3.34903 0.0791,4.00815 0.48098,4.00815 0.397,0 0.48098,0.58786 0.48098,3.36685 0,3.15308 0.0407,3.36684 0.6413,3.36684 0.60244,0 0.64131,0.21377 0.64131,3.52718 0,2.9215 0.0826,3.52717 0.48098,3.52717 0.26454,0 0.48098,0.21644 0.48098,0.48098 0,0.26454 -0.21644,0.48098 -0.48098,0.48098 -0.32065,0 -0.48098,0.32065 -0.48098,0.96196 0,0.74818 -0.14251,0.96195 -0.64131,0.96195 -0.35628,0 -0.6413,0.21377 -0.6413,0.48098 0,0.26454 -0.21644,0.48098 -0.48098,0.48098 -0.26454,0 -0.48098,0.21644 -0.48098,0.48098 0,0.38478 -0.48097,0.48098 -2.40489,0.48098 -1.92391,0 -2.40489,-0.0962 -2.40489,-0.48098 0,-0.26454 -0.21644,-0.48098 -0.48098,-0.48098 -0.26454,0 -0.48098,-0.21644 -0.48098,-0.48098 0,-0.26454 -0.21644,-0.48098 -0.48097,-0.48098 -0.26454,0 -0.48098,-0.21644 -0.48098,-0.48098 0,-0.26453 -0.21644,-0.48097 -0.48098,-0.48097 -0.26454,0 -0.48098,-0.21644 -0.48098,-0.48098 0,-0.26454 -0.21644,-0.48098 -0.48098,-0.48098 -0.26453,0 -0.48097,-0.21644 -0.48097,-0.48098 0,-0.26454 -0.21645,-0.48098 -0.48098,-0.48098 -0.26454,0 -0.48098,-0.21644 -0.48098,-0.48098 0,-0.33592 -0.33847,-0.48097 -1.12228,-0.48097 -0.90852,0 -1.12229,-0.12216 -1.12229,-0.64131 0,-0.35628 -0.21377,-0.6413 -0.48097,-0.6413 -0.26454,0 -0.48098,-0.21644 -0.48098,-0.48098 0,-0.26454 -0.21644,-0.48098 -0.48098,-0.48098 -0.26454,0 -0.48098,-0.21644 -0.48098,-0.48098 0,-0.26454 -0.21644,-0.48098 -0.48098,-0.48098 -0.26454,0 -0.48098,-0.21644 -0.48098,-0.48097 0,-0.26454 -0.21644,-0.48098 -0.48097,-0.48098 -0.26454,0 -0.48098,-0.21644 -0.48098,-0.48098 0,-0.26454 -0.21644,-0.48098 -0.48098,-0.48098 -0.26454,0 -0.48098,-0.21644 -0.48098,-0.48098 0,-0.26721 -0.28502,-0.48098 -0.6413,-0.48098 -0.4988,0 -0.64131,0.21377 -0.64131,0.96196 0,0.64131 -0.16032,0.96196 -0.48098,0.96196 -0.38745,0 -0.48097,0.49879 -0.48097,2.56522 0,2.06642 -0.0935,2.56521 -0.48098,2.56521 -0.39191,0 -0.48098,0.53442 -0.48098,2.88587 0,2.35145 -0.0891,2.88587 -0.48098,2.88587 -0.38745,0 -0.48098,0.4988 -0.48098,2.56522 0,2.06642 -0.0935,2.56522 -0.48098,2.56522 -0.38745,0 -0.48097,0.49879 -0.48097,2.56521 0,2.06643 -0.0935,2.56522 -0.48098,2.56522 -0.38478,0 -0.48098,0.48098 -0.48098,2.40489 0,2.19112 -0.057,2.40489 -0.6413,2.40489 -0.58787,0 -0.64131,0.21377 -0.64131,2.56522 0,2.06642 -0.0935,2.56522 -0.48098,2.56522 -0.38478,0 -0.48098,0.48098 -0.48098,2.40489 0,1.92391 -0.0962,2.40489 -0.48097,2.40489 -0.39379,0 -0.48098,0.55223 -0.48098,3.0462 0,2.49396 -0.0872,3.04619 -0.48098,3.04619 -0.32065,0 -0.48098,0.32065 -0.48098,0.96196 0,0.6413 -0.16032,0.96196 -0.48098,0.96196 -0.26454,0 -0.48098,0.21644 -0.48098,0.48097 0,0.26454 -0.21644,0.48098 -0.48097,0.48098 -0.26721,0 -0.48098,0.28503 -0.48098,0.64131 0,0.5843 -0.21377,0.6413 -2.40489,0.6413 -2.19113,0 -2.40489,-0.057 -2.40489,-0.6413 z m 2.88587,-32.38587 c 0,-1.49638 0.10688,-1.92392 0.48097,-1.92392 0.38746,0 0.48098,-0.49879 0.48098,-2.56521 0,-2.06643 0.0935,-2.56522 0.48098,-2.56522 0.38478,0 0.48098,-0.48098 0.48098,-2.40489 0,-1.92392 0.0962,-2.40489 0.48098,-2.40489 0.38745,0 0.48097,-0.4988 0.48097,-2.56522 0,-2.35145 0.0534,-2.56522 0.64131,-2.56522 0.5843,0 0.6413,-0.21377 0.6413,-2.40489 0,-1.92391 0.0962,-2.40489 0.48098,-2.40489 0.38746,0 0.48098,-0.49879 0.48098,-2.56522 0,-2.06642 0.0935,-2.56522 0.48098,-2.56522 0.26454,0 0.48098,-0.21644 0.48098,-0.48097 0,-0.26454 0.21644,-0.48098 0.48097,-0.48098 0.26454,0 0.48098,-0.21644 0.48098,-0.48098 0,-0.39191 0.53442,-0.48098 2.88587,-0.48098 2.35145,0 2.88587,0.0891 2.88587,0.48098 0,0.26454 0.21644,0.48098 0.48098,0.48098 0.26454,0 0.48098,0.21644 0.48098,0.48098 0,0.26453 0.21644,0.48097 0.48098,0.48097 0.26453,0 0.48098,0.21644 0.48098,0.48098 0,0.26454 0.21644,0.48098 0.48097,0.48098 0.26454,0 0.48098,0.21644 0.48098,0.48098 0,0.26721 0.28503,0.48098 0.64131,0.48098 0.35628,0 0.6413,0.21377 0.6413,0.48098 0,0.26453 0.21644,0.48097 0.48098,0.48097 0.26454,0 0.48098,0.21644 0.48098,0.48098 0,0.26454 0.21644,0.48098 0.48098,0.48098 0.2672,0 0.48097,0.28502 0.48097,0.6413 0,0.35628 0.21377,0.64131 0.48098,0.64131 0.26454,0 0.48098,0.21644 0.48098,0.48098 0,0.33592 0.33847,0.48098 1.12228,0.48098 l 1.12229,0 0,-1.60327 c 0,-1.21135 -0.11758,-1.60326 -0.48098,-1.60326 -0.39839,0 -0.48098,-0.60567 -0.48098,-3.52717 0,-3.3134 -0.0389,-3.52717 -0.64131,-3.52717 -0.58786,0 -0.6413,-0.21377 -0.6413,-2.56522 l 0,-2.56522 -2.56522,0 c -2.06642,0 -2.56521,0.0935 -2.56521,0.48098 0,0.42064 -1.87047,0.48098 -14.91033,0.48098 -13.03986,0 -14.91033,-0.0603 -14.91033,-0.48098 0,-0.39378 -0.55223,-0.48098 -3.04619,-0.48098 l -3.0462,0 0,3.52718 c 0,2.92149 -0.0826,3.52717 -0.48098,3.52717 -0.39838,0 -0.48097,0.60568 -0.48097,3.52717 0,2.9215 -0.0826,3.52718 -0.48098,3.52718 -0.26721,0 -0.48098,0.28502 -0.48098,0.6413 0,0.51915 0.21377,0.64131 1.12228,0.64131 0.78382,0 1.12228,-0.14506 1.12228,-0.48098 0,-0.26454 0.21644,-0.48098 0.48098,-0.48098 0.26721,0 0.48098,-0.28503 0.48098,-0.64131 0,-0.35628 0.21377,-0.6413 0.48098,-0.6413 0.26454,0 0.48098,-0.21644 0.48098,-0.48098 0,-0.26454 0.21644,-0.48098 0.48098,-0.48098 0.26453,0 0.48097,-0.21644 0.48097,-0.48097 0,-0.26454 0.21644,-0.48098 0.48098,-0.48098 0.26454,0 0.48098,-0.21644 0.48098,-0.48098 0,-0.26454 0.21644,-0.48098 0.48098,-0.48098 0.26454,0 0.48098,-0.21644 0.48098,-0.48098 0,-0.32065 0.32065,-0.48098 0.96195,-0.48098 0.64131,0 0.96196,-0.16032 0.96196,-0.48097 0,-0.26721 0.28502,-0.48098 0.6413,-0.48098 0.35628,0 0.64131,-0.21377 0.64131,-0.48098 0,-0.38478 0.48098,-0.48098 2.40489,-0.48098 1.92391,0 2.40489,0.0962 2.40489,0.48098 0,0.26454 0.21644,0.48098 0.48098,0.48098 0.26454,0 0.48098,0.21644 0.48098,0.48098 0,0.26453 0.21644,0.48097 0.48098,0.48097 0.35628,0 0.48097,0.3741 0.48097,1.44294 0,1.06884 0.1247,1.44293 0.48098,1.44293 0.38746,0 0.48098,0.4988 0.48098,2.56522 0,2.06642 0.0935,2.56522 0.48098,2.56522 0.38478,0 0.48098,0.48098 0.48098,2.40489 0,1.92391 0.0962,2.40489 0.48098,2.40489 0.39378,0 0.48097,0.55223 0.48097,3.0462 0,2.49396 0.0872,3.04619 0.48098,3.04619 0.38746,0 0.48098,0.4988 0.48098,2.56522 0,2.06642 0.0935,2.56522 0.48098,2.56522 0.38478,0 0.48098,0.48098 0.48098,2.40489 0,2.19112 0.057,2.40489 0.6413,2.40489 0.57005,0 0.64131,-0.21377 0.64131,-1.92391 z m 16.99456,-45.37229 c 0,-0.39838 0.60568,-0.48097 3.52717,-0.48097 2.9215,0 3.52718,-0.0826 3.52718,-0.48098 0,-0.38746 0.49879,-0.48098 2.56522,-0.48098 2.35144,0 2.56521,-0.0534 2.56521,-0.6413 0,-0.5843 0.21377,-0.64131 2.40489,-0.64131 1.92392,0 2.4049,-0.0962 2.4049,-0.48098 0,-0.3782 0.44535,-0.48098 2.08423,-0.48098 1.63889,0 2.08424,-0.10277 2.08424,-0.48097 0,-0.35628 0.3741,-0.48098 1.44294,-0.48098 1.06884,0 1.44293,-0.1247 1.44293,-0.48098 0,-0.35628 0.3741,-0.48098 1.44294,-0.48098 1.06884,0 1.44293,-0.1247 1.44293,-0.48098 0,-0.3634 0.39191,-0.48098 1.60326,-0.48098 1.21136,0 1.60326,-0.11757 1.60326,-0.48097 0,-0.32066 0.32066,-0.48098 0.96196,-0.48098 0.64131,0 0.96196,-0.16033 0.96196,-0.48098 0,-0.35628 0.37409,-0.48098 1.44293,-0.48098 1.06884,0 1.44294,-0.1247 1.44294,-0.48098 0,-0.33592 0.33846,-0.48097 1.12228,-0.48097 0.90851,0 1.12228,-0.12216 1.12228,-0.64131 0,-0.49879 0.21377,-0.6413 0.96196,-0.6413 0.6413,0 0.96196,-0.16033 0.96196,-0.48098 0,-0.32065 0.32065,-0.48098 0.96195,-0.48098 0.64131,0 0.96196,-0.16033 0.96196,-0.48098 0,-0.32065 0.32065,-0.48098 0.96196,-0.48098 0.6413,0 0.96195,-0.16032 0.96195,-0.48097 0,-0.32066 0.32065,-0.48098 0.96196,-0.48098 0.6413,0 0.96195,-0.16033 0.96195,-0.48098 0,-0.26721 0.28503,-0.48098 0.64131,-0.48098 0.35628,0 0.6413,-0.21377 0.6413,-0.48098 0,-0.32065 0.32066,-0.48098 0.96196,-0.48098 0.6413,0 0.96196,-0.16032 0.96196,-0.48097 0,-0.32066 0.32065,-0.48098 0.96195,-0.48098 0.64131,0 0.96196,-0.16033 0.96196,-0.48098 0,-0.26454 0.21644,-0.48098 0.48098,-0.48098 0.26721,0 0.48098,-0.28502 0.48098,-0.6413 0,-0.35628 0.21377,-0.64131 0.48097,-0.64131 0.26454,0 0.48098,-0.21644 0.48098,-0.48098 0,-0.33592 0.33847,-0.48097 1.12229,-0.48097 0.78381,0 1.12228,-0.14506 1.12228,-0.48098 0,-0.26454 0.21644,-0.48098 0.48098,-0.48098 0.26453,0 0.48097,-0.21644 0.48097,-0.48098 0,-0.26454 0.21644,-0.48098 0.48098,-0.48098 0.26454,0 0.48098,-0.21644 0.48098,-0.48098 0,-0.26453 0.21644,-0.48097 0.48098,-0.48097 0.26454,0 0.48098,-0.21644 0.48098,-0.48098 0,-0.26454 0.21644,-0.48098 0.48098,-0.48098 0.3634,0 0.48097,-0.39191 0.48097,-1.60326 0,-1.56763 -0.0214,-1.60326 -0.96195,-1.60326 -0.64131,0 -0.96196,-0.16033 -0.96196,-0.48098 0,-0.26454 -0.21644,-0.48098 -0.48098,-0.48098 -0.26454,0 -0.48098,-0.21644 -0.48098,-0.48098 0,-0.26454 -0.21644,-0.48098 -0.48097,-0.48098 -0.26454,0 -0.48098,-0.21644 -0.48098,-0.48097 0,-0.26721 -0.28503,-0.48098 -0.64131,-0.48098 -0.35628,0 -0.6413,-0.21377 -0.6413,-0.48098 0,-0.32065 -0.32065,-0.48098 -0.96196,-0.48098 -0.74818,0 -0.96195,-0.14251 -0.96195,-0.6413 0,-0.35628 -0.21377,-0.64131 -0.48098,-0.64131 -0.26454,0 -0.48098,-0.21644 -0.48098,-0.48098 0,-0.26453 -0.21644,-0.48097 -0.48098,-0.48097 -0.26454,0 -0.48098,-0.21644 -0.48098,-0.48098 0,-0.32065 -0.32065,-0.48098 -0.96195,-0.48098 -0.64131,0 -0.96196,-0.16033 -0.96196,-0.48098 0,-0.33592 -0.33847,-0.48098 -1.12228,-0.48098 -0.78382,0 -1.12229,-0.14505 -1.12229,-0.48097 0,-0.26454 -0.21644,-0.48098 -0.48097,-0.48098 -0.26454,0 -0.48098,-0.21644 -0.48098,-0.48098 0,-0.32065 -0.32065,-0.48098 -0.96196,-0.48098 -0.6413,0 -0.96195,-0.16033 -0.96195,-0.48098 0,-0.32065 -0.32066,-0.48098 -0.96196,-0.48098 -0.64131,0 -0.96196,-0.16032 -0.96196,-0.48097 0,-0.32066 -0.32065,-0.48098 -0.96195,-0.48098 -0.74819,0 -0.96196,-0.14251 -0.96196,-0.64131 0,-0.51915 -0.21377,-0.6413 -1.12228,-0.6413 -0.78382,0 -1.12229,-0.14506 -1.12229,-0.48098 0,-0.35628 -0.37409,-0.48098 -1.44293,-0.48098 -1.06884,0 -1.44294,-0.1247 -1.44294,-0.48098 0,-0.32065 -0.32065,-0.48097 -0.96195,-0.48097 -0.64131,0 -0.96196,-0.16033 -0.96196,-0.48098 0,-0.36341 -0.39191,-0.48098 -1.60326,-0.48098 -1.21135,0 -1.60326,-0.11757 -1.60326,-0.48098 0,-0.35628 -0.3741,-0.48098 -1.44294,-0.48098 -1.06883,0 -1.44293,-0.1247 -1.44293,-0.48098 0,-0.35628 -0.3741,-0.48097 -1.44293,-0.48097 -1.06884,0 -1.44294,-0.1247 -1.44294,-0.48098 0,-0.36341 -0.39191,-0.48098 -1.60326,-0.48098 -1.21135,0 -1.60326,0.11757 -1.60326,0.48098 0,0.26454 -0.21644,0.48098 -0.48098,0.48098 -0.26454,0 -0.48098,0.21644 -0.48098,0.48097 0,0.32066 -0.32065,0.48098 -0.96195,0.48098 -0.64131,0 -0.96196,0.16033 -0.96196,0.48098 0,0.26721 -0.28503,0.48098 -0.64131,0.48098 -0.35628,0 -0.6413,0.21377 -0.6413,0.48098 0,0.32065 -0.32065,0.48098 -0.96196,0.48098 -0.6413,0 -0.96195,0.16032 -0.96195,0.48097 0,0.32066 -0.32065,0.48098 -0.96196,0.48098 -0.6413,0 -0.96196,0.16033 -0.96196,0.48098 0,0.32065 -0.32065,0.48098 -0.96195,0.48098 -0.74819,0 -0.96196,0.14251 -0.96196,0.6413 0,0.5558 -0.21377,0.64131 -1.60326,0.64131 -1.21135,0 -1.60326,0.11757 -1.60326,0.48098 0,0.35628 -0.3741,0.48097 -1.44294,0.48097 -1.06883,0 -1.44293,0.1247 -1.44293,0.48098 0,0.37821 -0.44535,0.48098 -2.08424,0.48098 -1.63889,0 -2.08424,0.10277 -2.08424,0.48098 0,0.38478 -0.48098,0.48098 -2.40489,0.48098 -1.92391,0 -2.40489,0.0962 -2.40489,0.48098 0,0.4181 -1.42512,0.48097 -10.90217,0.48097 -9.47706,0 -10.90218,-0.0629 -10.90218,-0.48097 0,-0.39379 -0.55223,-0.48098 -3.04619,-0.48098 -2.49397,0 -3.0462,-0.0872 -3.0462,-0.48098 0,-0.3741 -0.42754,-0.48098 -1.92391,-0.48098 -1.49638,0 -1.92392,-0.10688 -1.92392,-0.48098 0,-0.3634 -0.3919,-0.48098 -1.60326,-0.48098 -1.21135,0 -1.60326,-0.11757 -1.60326,-0.48097 0,-0.32066 -0.32065,-0.48098 -0.96195,-0.48098 -0.74819,0 -0.96196,-0.14251 -0.96196,-0.64131 0,-0.54629 -0.21377,-0.6413 -1.44294,-0.6413 -1.06884,0 -1.44293,-0.1247 -1.44293,-0.48098 0,-0.33592 -0.33847,-0.48098 -1.12228,-0.48098 -0.78382,0 -1.12229,-0.14505 -1.12229,-0.48098 0,-0.26453 -0.21644,-0.48097 -0.48097,-0.48097 -0.26454,0 -0.48098,-0.21644 -0.48098,-0.48098 0,-0.32065 -0.32065,-0.48098 -0.96196,-0.48098 -0.6413,0 -0.96196,-0.16033 -0.96196,-0.48098 0,-0.26454 -0.21644,-0.48098 -0.48097,-0.48098 -0.26454,0 -0.48098,-0.21644 -0.48098,-0.48098 0,-0.32065 -0.32065,-0.48097 -0.96196,-0.48097 -0.6413,0 -0.96195,-0.16033 -0.96195,-0.48098 0,-0.36341 -0.39191,-0.48098 -1.60327,-0.48098 -1.21135,0 -1.60326,0.11757 -1.60326,0.48098 0,0.3634 -0.3919,0.48098 -1.60326,0.48098 -1.21135,0 -1.60326,0.11757 -1.60326,0.48097 0,0.35628 -0.37409,0.48098 -1.44293,0.48098 -1.06884,0 -1.44294,0.1247 -1.44294,0.48098 0,0.35628 -0.37409,0.48098 -1.44293,0.48098 -1.068842,0 -1.442937,0.1247 -1.442937,0.48098 0,0.33592 -0.338468,0.48098 -1.122283,0.48098 -0.783815,0 -1.122283,0.14505 -1.122283,0.48097 0,0.32066 -0.320652,0.48098 -0.961956,0.48098 -0.641304,0 -0.961957,0.16033 -0.961957,0.48098 0,0.35628 -0.374095,0.48098 -1.442934,0.48098 -1.229166,0 -1.442935,0.095 -1.442935,0.6413 0,0.4988 -0.213769,0.64131 -0.961957,0.64131 -0.641304,0 -0.961956,0.16032 -0.961956,0.48098 0,0.33592 -0.338467,0.48097 -1.122283,0.48097 -0.783816,0 -1.122282,0.14506 -1.122282,0.48098 0,0.26454 -0.216441,0.48098 -0.480979,0.48098 -0.264538,0 -0.480978,0.21644 -0.480978,0.48098 0,0.32065 -0.320652,0.48098 -0.961957,0.48098 -0.641304,0 -0.961956,0.16032 -0.961956,0.48098 0,0.32065 -0.320652,0.48097 -0.961957,0.48097 -0.641304,0 -0.961956,0.16033 -0.961956,0.48098 0,0.26454 -0.21644,0.48098 -0.480978,0.48098 -0.264538,0 -0.480979,0.21644 -0.480979,0.48098 0,0.33592 -0.338466,0.48098 -1.122282,0.48098 -0.783817,0 -1.122283,0.14505 -1.122283,0.48097 0,0.26454 -0.21644,0.48098 -0.480978,0.48098 -0.26721,0 -0.480978,0.28503 -0.480978,0.64131 0,0.49879 -0.213769,0.6413 -0.961957,0.6413 -0.641304,0 -0.961956,0.16033 -0.961956,0.48098 0,0.26454 -0.216441,0.48098 -0.480979,0.48098 -0.264538,0 -0.480978,0.21644 -0.480978,0.48098 0,0.26453 -0.21644,0.48097 -0.480978,0.48097 -0.264538,0 -0.480978,0.21644 -0.480978,0.48098 0,0.26454 -0.216441,0.48098 -0.480979,0.48098 -0.264538,0 -0.480978,0.21644 -0.480978,0.48098 0,0.26454 -0.21644,0.48098 -0.480978,0.48098 -0.264538,0 -0.480978,0.21644 -0.480978,0.48098 0,0.26721 -0.285025,0.48097 -0.641305,0.48097 -0.519151,0 -0.641304,0.21377 -0.641304,1.12229 0,0.90851 0.122153,1.12228 0.641304,1.12228 0.35628,0 0.641305,0.21377 0.641305,0.48098 0,0.26454 0.21644,0.48098 0.480978,0.48098 0.264538,0 0.480978,0.21644 0.480978,0.48097 0,0.26454 0.21644,0.48098 0.480978,0.48098 0.264538,0 0.480979,0.21644 0.480979,0.48098 0,0.32065 0.320652,0.48098 0.961956,0.48098 0.641304,0 0.961957,0.16033 0.961957,0.48098 0,0.26454 0.21644,0.48098 0.480978,0.48098 0.264538,0 0.480978,0.21644 0.480978,0.48097 0,0.26454 0.21644,0.48098 0.480978,0.48098 0.26721,0 0.480979,0.28503 0.480979,0.64131 0,0.51915 0.213768,0.6413 1.122282,0.6413 0.783817,0 1.122283,0.14506 1.122283,0.48098 0,0.26454 0.21644,0.48098 0.480978,0.48098 0.264538,0 0.480978,0.21644 0.480978,0.48098 0,0.32065 0.320653,0.48097 0.961957,0.48097 0.641304,0 0.961956,0.16033 0.961956,0.48098 0,0.26454 0.216441,0.48098 0.480979,0.48098 0.264538,0 0.480978,0.21644 0.480978,0.48098 0,0.32065 0.320652,0.48098 0.961956,0.48098 0.641305,0 0.961957,0.16032 0.961957,0.48098 0,0.33592 0.338466,0.48097 1.122283,0.48097 0.783816,0 1.122282,0.14506 1.122282,0.48098 0,0.32065 0.320652,0.48098 0.961957,0.48098 0.641304,0 0.961956,0.16033 0.961956,0.48098 0,0.32065 0.320652,0.48098 0.961957,0.48098 0.748187,0 0.961956,0.14251 0.961956,0.6413 0,0.49352 0.213769,0.64131 0.92765,0.64131 0.528781,0 1.007012,0.20681 1.112221,0.48097 0.126484,0.32962 0.641811,0.48098 1.637567,0.48098 1.077786,0 1.452997,0.12421 1.452997,0.48098 0,0.32065 0.320652,0.48098 0.961957,0.48098 0.641304,0 0.961957,0.16032 0.961957,0.48098 0,0.35628 0.37409,0.48097 1.44293,0.48097 1.06884,0 1.44294,0.1247 1.44294,0.48098 0,0.36341 0.39191,0.48098 1.60326,0.48098 1.21135,0 1.60326,0.11757 1.60326,0.48098 0,0.37409 0.42754,0.48098 1.92391,0.48098 1.49638,0 1.92392,0.10688 1.92392,0.48098 0,0.35628 0.37409,0.48097 1.44293,0.48097 1.06884,0 1.44294,0.1247 1.44294,0.48098 0,0.38746 0.49879,0.48098 2.56521,0.48098 2.35145,0 2.56522,0.0534 2.56522,0.64131 0,0.58786 0.21377,0.6413 2.56522,0.6413 2.06642,0 2.56522,0.0935 2.56522,0.48098 0,0.397 0.58786,0.48098 3.36684,0.48098 2.77899,0 3.36685,0.084 3.36685,0.48097 0,0.42171 2.17331,0.48098 17.63587,0.48098 15.46256,0 17.63587,-0.0593 17.63587,-0.48098 z m -12.82609,-44.08967 c 0,-0.6071 0.21377,-0.6413 4.00816,-0.6413 3.34903,0 4.00815,-0.0791 4.00815,-0.48098 0,-0.3741 0.42753,-0.48098 1.92391,-0.48098 1.49638,0 1.92391,-0.10688 1.92391,-0.48098 0,-0.37409 0.42754,-0.48098 1.92392,-0.48098 1.49637,0 1.92391,-0.10688 1.92391,-0.48098 0,-0.33592 0.33847,-0.48097 1.12228,-0.48097 0.78382,0 1.12229,-0.14506 1.12229,-0.48098 0,-0.32065 0.32065,-0.48098 0.96195,-0.48098 0.64131,0 0.96196,-0.16033 0.96196,-0.48098 0,-0.32065 0.32065,-0.48098 0.96195,-0.48098 0.64131,0 0.96196,-0.16032 0.96196,-0.48097 0,-0.32066 0.32065,-0.48098 0.96196,-0.48098 0.6413,0 0.96195,-0.16033 0.96195,-0.48098 0,-0.26721 0.28503,-0.48098 0.64131,-0.48098 0.55579,0 0.6413,-0.21377 0.6413,-1.60326 0,-1.389492 -0.0855,-1.603261 -0.6413,-1.603261 -0.51915,0 -0.64131,-0.213769 -0.64131,-1.122283 0,-0.783816 -0.14505,-1.122283 -0.48097,-1.122283 -0.32066,0 -0.48098,-0.320652 -0.48098,-0.961956 0,-0.641304 -0.16033,-0.961957 -0.48098,-0.961957 -0.32065,0 -0.48098,-0.320652 -0.48098,-0.961956 0,-0.641304 -0.16032,-0.961957 -0.48098,-0.961957 -0.26454,0 -0.48098,-0.21644 -0.48098,-0.480978 0,-0.264538 -0.21644,-0.480978 -0.48097,-0.480978 -0.26454,0 -0.48098,-0.21644 -0.48098,-0.480978 0,-0.264538 -0.21644,-0.480979 -0.48098,-0.480979 -0.33592,0 -0.48098,-0.338466 -0.48098,-1.122282 0,-0.783817 -0.14505,-1.122283 -0.48098,-1.122283 -0.26453,0 -0.48097,-0.21644 -0.48097,-0.480978 0,-0.264538 -0.21645,-0.480978 -0.48098,-0.480978 -0.26454,0 -0.48098,-0.216441 -0.48098,-0.480979 0,-0.26721 -0.28503,-0.480978 -0.64131,-0.480978 -0.35628,0 -0.6413,-0.213768 -0.6413,-0.480978 0,-0.264538 -0.21644,-0.480978 -0.48098,-0.480978 -0.26454,0 -0.48098,-0.216441 -0.48098,-0.480979 0,-0.264538 -0.21644,-0.480978 -0.48097,-0.480978 -0.26454,0 -0.48098,-0.21644 -0.48098,-0.480978 0,-0.264538 -0.21644,-0.480978 -0.48098,-0.480978 -0.26454,0 -0.48098,-0.216441 -0.48098,-0.480979 0,-0.264538 -0.21644,-0.480978 -0.48098,-0.480978 -0.26454,0 -0.48098,-0.21644 -0.48098,-0.480978 0,-0.320652 -0.32065,-0.480979 -0.96195,-0.480979 -0.64131,0 -0.96196,-0.160326 -0.96196,-0.480978 0,-0.264538 -0.21644,-0.480978 -0.48098,-0.480978 -0.26721,0 -0.48098,-0.285024 -0.48098,-0.641304 0,-0.519152 -0.21376,-0.641305 -1.12228,-0.641305 -0.78381,0 -1.12228,-0.145057 -1.12228,-0.480978 0,-0.35628 -0.3741,-0.480978 -1.44294,-0.480978 -1.06884,0 -1.44293,-0.124698 -1.44293,-0.480979 0,-0.35628 -0.3741,-0.480978 -1.44294,-0.480978 -1.06883,0 -1.44293,-0.124698 -1.44293,-0.480978 0,-0.409213 -0.83726,-0.480978 -5.61141,-0.480978 -4.77416,0 -5.61142,0.07177 -5.61142,0.480978 0,0.363406 -0.3919,0.480978 -1.60326,0.480978 -1.21135,0 -1.60326,0.117573 -1.60326,0.480978 0,0.320653 -0.32065,0.480979 -0.96195,0.480979 -0.64131,0 -0.96196,0.160326 -0.96196,0.480978 0,0.320652 -0.32065,0.480978 -0.96196,0.480978 -0.74818,0 -0.96195,0.142512 -0.96195,0.641305 0,0.498792 -0.21377,0.641304 -0.96196,0.641304 -0.6413,0 -0.96196,0.160326 -0.96196,0.480978 0,0.264538 -0.21644,0.480978 -0.48098,0.480978 -0.26453,0 -0.48097,0.216441 -0.48097,0.480979 0,0.335921 -0.33847,0.480978 -1.12229,0.480978 -0.78381,0 -1.12228,0.145057 -1.12228,0.480978 0,0.264538 -0.21644,0.480979 -0.48098,0.480979 -0.26454,0 -0.48098,0.21644 -0.48098,0.480978 0,0.264538 -0.21644,0.480978 -0.48097,0.480978 -0.26454,0 -0.48098,0.21644 -0.48098,0.480978 0,0.264538 -0.21644,0.480979 -0.48098,0.480979 -0.26454,0 -0.48098,0.21644 -0.48098,0.480978 0,0.264538 -0.21644,0.480978 -0.48098,0.480978 -0.26453,0 -0.48097,0.21644 -0.48097,0.480978 0,0.264538 -0.21645,0.480979 -0.48098,0.480979 -0.33592,0 -0.48098,0.338466 -0.48098,1.122282 0,0.783816 -0.14506,1.122283 -0.48098,1.122283 -0.26454,0 -0.48098,0.21644 -0.48098,0.480978 0,0.264538 -0.21644,0.480978 -0.48098,0.480978 -0.26453,0 -0.48097,0.216441 -0.48097,0.480979 0,0.26721 -0.28503,0.480978 -0.64131,0.480978 -0.49879,0 -0.6413,0.213768 -0.6413,0.961956 0,0.641305 -0.16033,0.961957 -0.48098,0.961957 -0.32065,0 -0.48098,0.320652 -0.48098,0.961956 0,0.641305 -0.16033,0.961957 -0.48098,0.961957 -0.26454,0 -0.48098,0.21644 -0.48098,0.480978 0,0.264538 -0.21644,0.480978 -0.48097,0.480978 -0.36341,0 -0.48098,0.391909 -0.48098,1.603261 0,1.211354 -0.11758,1.603261 -0.48098,1.603261 -0.33592,0 -0.48098,0.338468 -0.48098,1.122283 0,0.783812 0.14506,1.122282 0.48098,1.122282 0.26454,0 0.48098,0.21644 0.48098,0.48098 0,0.32065 0.32065,0.48098 0.96195,0.48098 0.64131,0 0.96196,0.16032 0.96196,0.48098 0,0.33592 0.33847,0.48097 1.12228,0.48097 0.78382,0 1.12229,0.14506 1.12229,0.48098 0,0.32065 0.32065,0.48098 0.96195,0.48098 0.64131,0 0.96196,0.16033 0.96196,0.48098 0,0.35628 0.37409,0.48098 1.44293,0.48098 1.06884,0 1.44294,0.12469 1.44294,0.48097 0,0.36341 0.39191,0.48098 1.60326,0.48098 1.21135,0 1.60326,0.11758 1.60326,0.48098 0,0.3741 0.42754,0.48098 1.92391,0.48098 1.49638,0 1.92392,0.10688 1.92392,0.48098 0,0.40463 0.71256,0.48098 4.48913,0.48098 4.27536,0 4.48913,0.0305 4.48913,0.6413 0,0.60842 0.21377,0.6413 4.16848,0.6413 3.9547,0 4.16847,-0.0329 4.16847,-0.6413 z"
     id="path3069"
     inkscape:connector-curvature="0" />
  <path
     style="fill:#ff0000;fill-opacity:0;stroke:#000000;stroke-width:11;stroke-linecap:butt;stroke-linejoin:round;stroke-miterlimit:4;stroke-opacity:1;stroke-dasharray:none"
     d="m 64.846303,126.08218 c 0,0 29.022122,33.55683 83.211867,31.74295 54.18974,-1.81389 82.15412,-24.71068 82.07818,-31.28948 -0.0944,-8.17967 -14.73779,-21.99332 -47.16094,-26.52803 0,0 3.55825,11.93448 -32.19498,12.10165 C 111.0514,112.29503 125.61309,98.424794 114.95481,99.554148 80.717776,103.18191 64.846303,126.08218 64.846303,126.08218 z"
     id="path3095"
     inkscape:connector-curvature="0"
     sodipodi:nodetypes="csscssc" />
  <path
     style="fill:#ff00ff;stroke:#000000;stroke-width:10.69999981;stroke-linecap:round;stroke-linejoin:miter;stroke-miterlimit:4;stroke-opacity:1;stroke-dasharray:none"
     d="M 77.130629,172.97577 92.548631,147.58141"
     id="path3103"
     inkscape:connector-curvature="0"
     sodipodi:nodetypes="cc" />
  <path
     style="fill:#ff00ff;stroke:#000000;stroke-width:10.69999981;stroke-linecap:round;stroke-linejoin:miter;stroke-miterlimit:4;stroke-opacity:1;stroke-dasharray:none"
     d="M 219.4798,175.73722 205.42221,151.02307"
     id="path3103-3"
     inkscape:connector-curvature="0"
     sodipodi:nodetypes="cc" />
  <path
     style="fill:none;stroke:#000000;stroke-width:6.69999981;stroke-linecap:butt;stroke-linejoin:miter;stroke-miterlimit:4;stroke-opacity:1;stroke-dasharray:none"
     d="m 117.22216,97.554148 c 0,0 28.11518,-42.399506 64.61957,0.453472 0,0 -38.77175,17.00515 -64.61957,-0.453472 z"
     id="path3903"
     inkscape:connector-curvature="0" />
  <path
     style="opacity:0;fill:#7d0000;fill-opacity:0;stroke:#000000;stroke-width:6.69999980999999956;stroke-linecap:round;stroke-linejoin:bevel;stroke-miterlimit:4;stroke-opacity:1;stroke-dasharray:none"
     id="path3913"
     d="m 91.566135,126.22605 c 1.367636,0.0539 2.711831,-0.24414 4.034539,-0.55266 1.750164,-0.4349 3.354694,-1.24769 4.926286,-2.10781 -0.71626,0.40428 -1.414822,0.84164 -2.148775,1.21282 -0.212539,0.10749 0.391148,-0.27228 0.578863,-0.41887 0.8257,-0.64482 1.475252,-1.42824 2.117622,-2.24828 0.86189,-1.12744 1.65091,-2.30599 2.2612,-3.58852 0.27696,-0.72973 0.5805,-1.50591 0.53204,-2.30093 -0.005,-0.0136 -0.0289,-0.0346 -0.0157,-0.0409 3.38605,-1.61328 2.76211,-2.34895 3.17958,-0.59211 0.0933,0.39271 0.21379,0.87405 0.30974,1.26103 0.40605,1.71563 0.97788,3.38505 1.5395,5.05426 0.24673,0.71285 0.5007,1.42262 0.77018,2.12713 0,0 -2.87543,1.5948 -2.87543,1.5948 l 0,0 c -0.25198,-0.71703 -0.48479,-1.44004 -0.73257,-2.15855 -0.55795,-1.67522 -1.14395,-3.34353 -1.58474,-5.05472 -0.15559,-0.56775 -0.31457,-1.13436 -0.47436,-1.70093 -0.0318,-0.11259 -0.18741,-0.26727 -0.0943,-0.33804 0.91589,-0.69591 1.93414,-1.24769 2.9327,-1.81868 0.0367,-0.021 0.0227,0.0815 0.034,0.12227 0.0465,0.85765 -0.22815,1.68463 -0.52516,2.47941 -0.59538,1.31704 -1.39106,2.51629 -2.26148,3.66807 -0.47829,0.63267 -0.95306,1.27419 -1.51963,1.83294 -1.29853,1.2806 -2.998817,2.06288 -4.559433,2.94967 -1.584526,0.84533 -3.210727,1.6224 -4.970773,2.03122 -1.374293,0.3101 -2.763378,0.57211 -4.17865,0.56695 0,0 2.724721,-1.97962 2.724721,-1.97962 z"
     inkscape:connector-curvature="0" />
  <path
     sodipodi:type="arc"
     style="opacity:0;fill:#ca0a0a;fill-opacity:1;stroke:#000000;stroke-width:14.26799965000000014;stroke-linecap:round;stroke-linejoin:round;stroke-miterlimit:4;stroke-opacity:1;stroke-dasharray:none"
     id="path3999"
     sodipodi:cx="137.39946"
     sodipodi:cy="133.23097"
     sodipodi:rx="84.491844"
     sodipodi:ry="71.02446"
     d="m 221.8913,133.23097 a 84.491844,71.02446 0 1 1 -168.983684,0 84.491844,71.02446 0 1 1 168.983684,0 z" />
  <path
     sodipodi:type="arc"
     style="opacity:0;fill:#262626;fill-opacity:1;stroke:#000000;stroke-width:14.26889764000000049;stroke-linecap:round;stroke-linejoin:round;stroke-miterlimit:4;stroke-opacity:1;stroke-dasharray:none"
     id="path4001"
     sodipodi:cx="66.375"
     sodipodi:cy="35.752716"
     sodipodi:rx="19.23913"
     sodipodi:ry="15.55163"
     d="m 85.61413,35.752716 a 19.23913,15.55163 0 1 1 -38.47826,0 19.23913,15.55163 0 1 1 38.47826,0 z" />
  <path
     sodipodi:type="arc"
     style="opacity:0;fill:#000000;fill-opacity:1;stroke:#000000;stroke-width:14.26889764;stroke-linecap:round;stroke-linejoin:round;stroke-miterlimit:4;stroke-opacity:0.91402715000000001;stroke-dasharray:none"
     id="path4003"
     sodipodi:cx="65.573372"
     sodipodi:cy="52.10598"
     sodipodi:rx="17.154892"
     sodipodi:ry="17.796196"
     d="m 82.728264,52.10598 a 17.154892,17.796196 0 1 1 -34.309784,0 17.154892,17.796196 0 1 1 34.309784,0 z" />
  <path
     sodipodi:type="arc"
     style="opacity:0;fill:#100000;fill-opacity:1;stroke:#000000;stroke-width:14.26889764;stroke-linecap:round;stroke-linejoin:round;stroke-miterlimit:4;stroke-opacity:0.91402715000000001;stroke-dasharray:none"
     id="path4005"
     sodipodi:cx="39.119564"
     sodipodi:cy="43.288044"
     sodipodi:rx="24.369566"
     sodipodi:ry="23.086956"
     d="m 63.48913,43.288044 a 24.369566,23.086956 0 1 1 -48.739132,0 24.369566,23.086956 0 1 1 48.739132,0 z" />
</svg>
